<?xml version="1.0" encoding="utf-8"?>
<!-- Generator: Adobe Illustrator 24.1.1, SVG Export Plug-In . SVG Version: 6.00 Build 0)  -->
<svg version="1.1" id="_x2018_лой_x5F_1" xmlns="http://www.w3.org/2000/svg" xmlns:xlink="http://www.w3.org/1999/xlink"
	 x="0px" y="0px" width="1596px" height="1056px" viewBox="0 0 1596 1056" style="enable-background:new 0 0 1596 1056;"
	 xml:space="preserve">
<style type="text/css">
	.st0{display:none;fill:#FFFFFF;}
	.st1{fill:#EBF3FA;}
	.st2{fill:#DCE8FF;}
	.st3{opacity:0.7;fill:#9FBDFF;}
	.st4{fill:#DFEBFD;}
	.st5{opacity:0.5;fill:#C5DDFF;}
	.st6{fill:#C2CFFF;}
	.st7{fill:#163560;}
	.st8{fill:#FFFFFF;}
	.st9{fill:#9FC1F4;}
	.st10{fill:#F78E48;}
	.st11{fill:#F78248;}
	.st12{fill:#1F4777;}
	.st13{fill:#E06832;}
	.st14{fill:#FFB27D;}
	.st15{fill:#F1A34F;}
	.st16{fill:#D86713;}
	.st17{fill:#739AF0;}
	.st18{fill:#5283DB;}
	.st19{fill:#133054;}
	.st20{fill:#1C468A;}
	.st21{fill:#233862;}
	.st22{fill:#E8945B;}
	.st23{fill:#FFE3CA;}
	.st24{fill:#2E3552;}
	.st25{fill:#D7E2FF;}
	.st26{fill:#2B478B;}
	.st27{fill:#E58638;}
	.st28{fill:#F99746;}
	.st29{opacity:0.5;fill:#E27727;}
	.st30{fill:#355DAF;}
	.st31{fill:#E9F0FF;}
	.st32{fill:#FF9843;}
	.st33{fill:#F2BE8F;}
	.st34{opacity:0.5;fill:#EABC92;}
	.st35{fill:#AEC3FF;}
	.st36{fill:#94B0ED;}
</style>
<rect x="-200" y="-120" class="st0" width="3000" height="2000"/>
<g>
	<path class="st1" d="M162.9,1032.2c0,0-182.6-187.3-66.3-407.5C212.8,404.6,368.9,515.4,361.4,259C353.9,2.7,720.4-19.2,837,55.2
		c116.6,74.4,115.9,163.9,356.7,134.4s286.7,217.4,224,343.2c-88.9,178.5,246.6,149.2,35.1,500L162.9,1032.2z"/>
	<path class="st2" d="M1293.7,411.9c0,18.2-1.6,36.1-4.8,53.4c-7.6,41.6-23.8,80.1-46.8,113.7c-53.4,78.1-143.2,129.3-244.9,129.3
		c-121,0-225.1-72.5-271.2-176.5c-6.1-13.7-11.2-27.9-15.1-42.6c-6.7-24.7-10.2-50.6-10.2-77.4c0-21.7,2.3-42.8,6.7-63.1
		c0-0.2,0.1-0.5,0.1-0.7c12.3-56.2,40.6-106.4,79.8-145.7c11.1-11.2,23.1-21.4,35.9-30.7c6.1-4.4,12.4-8.6,18.8-12.6
		c45.1-27.8,98.2-43.8,155.1-43.8c7.5,0,15,0.3,22.4,0.8c10.4,0.8,20.7,2.1,30.8,3.9c42.5,7.7,81.9,24.5,116,48.3h0
		c21.3,14.8,40.5,32.3,57.2,52.1c8.8,10.4,16.8,21.3,24.1,32.9c4.5,7.2,8.8,14.5,12.7,22.1c9.5,18.2,17.1,37.5,22.6,57.6
		C1290,358.2,1293.7,384.6,1293.7,411.9z"/>
	<path class="st3" d="M896.4,279.2c-11.8,18.7,4.9,51.3-30.6,42.4c-35.5-8.9-57.2-12.8-59.2,6.9c-2,19.7,26.6,19.7,26.6,40.4
		c0,20.7-12.8,27.6-32.5,17.7c-19.7-9.8-25.4-24.1-48.3-15.3c-22.9,8.9-36.2,3-41.4-14.8c-0.9-3.1-2.2-5.6-3.7-7.8
		c0-0.2,0.1-0.5,0.1-0.7c12.3-56.2,40.6-106.4,79.8-145.7c11.1-11.2,23.1-21.4,35.9-30.7c6.1-4.4,12.4-8.6,18.8-12.6
		c9.2,0.3,20.3,3.8,29.7,15.5c20.7,25.6,34.5,12.8,29.6,42.4c-4.9,29.6,3,33.5,19.7,32.5c16.8-1,36.5-1,38.5,11.8
		C961.5,274.2,908.3,260.4,896.4,279.2z"/>
	<path class="st3" d="M1019.2,456.6c0,0-26.1,8.4-33-9.9c-6.9-18.2,1-22.2-22.2-27.6c-23.2-5.4-25.1-21.2-39.9-19.2
		c-14.8,2-7.4,7.9-24.6,20.7c-17.3,12.8-33,6.9-32.5,30.6c0.5,23.7,26.1,27.4,31.3,42.9c5.2,15.5-3.7,22.2,7.4,34
		c11.1,11.8,31.8,6.7,22.2,22.9c-9.6,16.3-24.4,28.8-17,54c7.4,25.1,2.2,26.6,14.8,44.4c12.6,17.7,37,23.7,40.7,11.8
		c3.7-11.8-17-27.4-10.4-39.2c6.7-11.8,17.7-3.7,22.2-21.4c4.4-17.7,22.4-17.7,23.9-30.1c1.5-12.3-21.7-31.1-12.8-38.9
		c8.9-7.9,26.6,14.3,40.4-5.4c13.8-19.7,4.4-35.5,18.7-54.2C1062.6,453.2,1029.1,445.8,1019.2,456.6z"/>
	<path class="st3" d="M1293.7,411.9c0,18.2-1.6,36.1-4.8,53.4c-7.6,41.6-23.8,80.1-46.8,113.7c-7.8,2.6-15.8,2.5-23.7-0.6
		c-37-14.8-9.6-54.7,5.2-74.7c14.8-20-22.9-11.1-50.3-29.6c-27.4-18.5,3-68-25.1-59.9c-28.1,8.1-62.1,18.5-78.4-8.9
		c-16.3-27.4,14.8-31.8,0.7-54.7c-14.1-22.9,8.1-36.2,36.2-38.5c28.1-2.2,24.4-22.2,59.2-25.1c34.8-3,34,41.4,72.5,38.5
		c38.5-3,36.7,5.9,36.7,5.9c2.8-0.1,5.5,0.5,8,1.7C1290,358.2,1293.7,384.6,1293.7,411.9z"/>
	<path class="st3" d="M1260.5,275.4c-32,15.6-44.8-26.8-72.1-14c-27.6,12.8-22.7-11.8-44.4-27.6c-21.7-15.8-65.1,12.8-63.1-11.8
		c2-24.6,34.5-17.7,41.4-37.5c6.9-19.7,38.5-14.8,38.5-14.8c1.8-0.7,3.7-1.1,5.7-1.3c0,0,0,0,0,0c21.3,14.8,40.5,32.3,57.2,52.1
		c8.8,10.4,16.8,21.3,24.1,32.9C1252.3,260.5,1256.6,267.9,1260.5,275.4z"/>
	<path class="st3" d="M991.1,190.4c0,0,16.8-24.2-9.9-31.3c-26.6-7.1-26.1,2.2-46.8,0c-20.7-2.2-28.8,13.8-13.3,31.3
		c15.5,17.5,28.1,51.1,42.1,33.2C977.3,205.7,974.6,192.1,991.1,190.4z"/>
	<path class="st4" d="M1487.1,892.9c11.8-37.6-48.7-62.1-48.7-62.1s-72.5,32.6-84.1,27.1c-11.5-5.5,56.6-40,56.6-40
		c-19.4-15.2-88.4-23.5-88.4-23.5s-38.4,67.6-48.3,59.4c-9.8-8.2,37.1-58.1,37.1-58.1c-23.9-6.8-57.5,4.6-57.5,4.6
		c-47.7,23.1-29.3,106.3-60,123.4h0c0,0-6.2,2.8-14.7,8.9l5.5,3.5c1.4-1.2,2.8-2.3,4.2-3.3c0,0,0,0,0,0c0,0,0,0,0.1,0
		c0.9-0.6,2.2-1.5,3.8-2.5c0,0,0,0,0,0c0,0,0,0,0,0c3.8-2.2,6.4-3.9,8.2-5.2c0,0,0,0,0,0c11.5-7.1,34-16.7,33.9-15.5
		c-3.4,26,41.2,59.2,70.6,70.5c29.4,11.3,22.8-3.3,16.4-24.2c-6.4-20.9-37.8-36.5-43.5-46.7c-5.7-10.2,10-6.8,26.5,5.6
		c16.5,12.4,14.1,35.3,40.4,55.9c26.3,20.6,81.4-18.5,81.4-18.5c-23.2-6.4-51.1-39.2-48.2-46.7c2.9-7.5,53.9,26,63.2,29.1
		C1451.1,937.6,1475.4,930.5,1487.1,892.9z"/>
	<path class="st4" d="M107.5,761.2c5.6-50.2,89.3-47.7,89.3-47.7s68.2,75.9,84.6,75.4c16.4-0.5-45.7-76.2-45.7-76.2
		c30.7-7.8,115.9,18.1,115.9,18.1s10.1,99.2,25.9,94.7c15.8-4.5-13.5-87.4-13.5-87.4c31.5,4.4,65.1,35.2,65.1,35.2
		c44,51.8-20.6,139.9,6.5,175.8l0,0c0,0,5.9,6.5,12.6,18l-8.2,1.3c-1-2.1-2.1-4.1-3.2-6c0,0,0,0,0,0c0,0,0-0.1,0-0.1
		c-0.8-1.2-1.8-2.9-3.2-4.9c0,0,0,0,0,0c0,0,0,0,0,0c-3.3-4.5-5.5-7.9-7-10.3c0,0,0,0,0,0c-9.9-14.3-31.3-37.2-31.7-35.8
		c-9.4,32.3-78.9,48.2-119.4,46.2c-40.4-2-25-15.7-6.7-36.9c18.3-21.2,63.2-23.3,75.2-32.3c12-9-8.2-13.1-34-7.1
		c-25.8,6-34.8,34.2-76.4,44.7c-41.6,10.5-85.9-63.9-85.9-63.9c30.5,4.6,80.3-19.6,80.7-29.9c0.5-10.4-76.7,2.6-89.2,1.4
		C126.7,832.3,101.9,811.4,107.5,761.2z"/>
	<g>
		<path class="st5" d="M1261.8,796.6c0,0,21.7-77.3,69.4-118c6.3-5.4,16,0.2,14.5,8.4c0,0.1-0.1,0.3-0.1,0.4
			C1342.9,701.3,1288.4,753.6,1261.8,796.6z"/>
		<path class="st5" d="M1253.4,818.4c0,0,55.6-92.2,131.1-125c4.6-2,10.1-0.2,12.3,4.4c1.4,2.9,1.6,7.2-1.5,13.4
			C1387.1,727.6,1301.3,774,1253.4,818.4z"/>
	</g>
	<g>
		<path class="st5" d="M341.2,712c0,0-21.7-77.3-69.4-118c-6.3-5.4-16,0.2-14.5,8.4c0,0.1,0,0.3,0.1,0.4
			C260.1,616.7,314.5,668.9,341.2,712z"/>
		<path class="st5" d="M349.6,733.8c0,0-55.6-92.2-131.1-125c-4.6-2-10.1-0.2-12.3,4.4c-1.4,2.9-1.6,7.2,1.5,13.4
			C215.9,643,301.6,689.3,349.6,733.8z"/>
	</g>
	<path class="st6" d="M990,310.9l-0.2,676.3c0,22.2-18,40.2-40.2,40.2l-353.5-0.1c-22.2,0-40.2-18-40.2-40.2l0.2-676.3
		c0-22.2,18-40.2,40.2-40.2l353.5,0.1C972.1,270.6,990.1,288.6,990,310.9z"/>
	<path class="st7" d="M949.6,1032.4l-353.5-0.1c-25,0-45.3-20.3-45.3-45.3l0.2-676.3c0-25,20.3-45.3,45.3-45.3l353.5,0.1
		c25,0,45.3,20.3,45.3,45.3l-0.2,676.3C994.9,1012.1,974.5,1032.4,949.6,1032.4z M596.3,275.5c-19.4,0-35.2,15.8-35.2,35.2
		L560.9,987c0,19.4,15.8,35.2,35.2,35.2l353.5,0.1c19.4,0,35.2-15.8,35.2-35.2l0.2-676.3c0-19.4-15.8-35.2-35.2-35.2L596.3,275.5z"
		/>
	<g>
		<path class="st8" d="M622,334.8l-5.9,4.3l-6-4.2c1.3-1.9,3.5-3.1,6-3.1C618.5,331.7,620.7,332.9,622,334.8z"/>
		<g>
			<path class="st8" d="M616.1,321.3c-6,0-11.3,3-14.5,7.5l3.8,2.6c2.4-3.4,6.3-5.5,10.7-5.5c4.4,0,8.3,2.2,10.6,5.5l3.8-2.7
				C627.3,324.2,622,321.3,616.1,321.3z"/>
		</g>
		<g>
			<path class="st8" d="M616.1,301.6c-12.6,0-23.8,6.3-30.6,15.9l3.8,2.6c5.9-8.4,15.8-13.9,26.8-13.9c11,0,20.7,5.4,26.7,13.7
				l3.7-2.7C639.7,307.7,628.6,301.6,616.1,301.6z"/>
		</g>
		<g>
			<path class="st8" d="M616.1,312.4c-9,0-17,4.4-21.8,11.3l3.8,2.6c4-5.6,10.6-9.3,18.1-9.3c7.4,0,13.9,3.6,18,9.2l3.7-2.7
				C632.9,316.7,625,312.4,616.1,312.4z"/>
		</g>
	</g>
	<g>
		<path class="st9" d="M695.5,200.1c0,0-25.8-12.4-59.1-5.6c0,0,38.1-2.6,60.7,21.6c0,0,15.8-24.2,41.9-29.8
			C739,186.4,719.5,184,695.5,200.1z"/>
		<path class="st9" d="M622.8,188.5c0,0-19.9-9.7-45.7-4.6c0,0,29.5-1.8,46.8,17c0,0,12.3-18.7,32.6-22.8
			C656.5,178,641.5,176.1,622.8,188.5z"/>
		<path class="st9" d="M558.7,179.6c0,0-18.5-8.1-41.7-2.4c0,0,26.7-2.8,43.3,13.6c0,0,10.5-17.5,28.7-22
			C588.9,168.8,575.2,167.7,558.7,179.6z"/>
		<path class="st9" d="M522.7,161.1c0,0-13-4.3-28.3,1c0,0,17.9-3.6,30,6.5c0,0,6-12.4,18-16.7C542.4,151.9,533.1,152,522.7,161.1z"
			/>
		<path class="st9" d="M651.4,115.5c0,0-12.7-4.9-28.3-0.5c0,0,18-2.6,29.7,8c0,0,6.6-12.1,18.8-15.7
			C671.6,107.3,662.3,106.9,651.4,115.5z"/>
		<path class="st9" d="M714.1,159.4c0,0-17.7-8.9-41-4.7c0,0,26.5-1.3,41.9,15.8c0,0,11.3-16.6,29.5-20.1
			C744.5,150.4,731,148.5,714.1,159.4z"/>
		<path class="st9" d="M689.4,131.7c0,0-16.7-7.6-38-2.9c0,0,24.4-2.1,39.2,13.1c0,0,9.9-15.7,26.6-19.6
			C717.1,122.3,704.6,121,689.4,131.7z"/>
	</g>
	<g>
		<path class="st10" d="M1153.8,385.2c0,29.7,49.9,77.1,49.9,77.1s49.9-47.4,49.9-77.1c0-29.7-22.4-53.7-49.9-53.7
			C1176.1,331.5,1153.8,355.6,1153.8,385.2z M1174.3,382.1c0-16.2,13.2-29.4,29.4-29.4c16.3,0,29.4,13.2,29.4,29.4
			c0,16.3-13.1,29.4-29.4,29.4C1187.5,411.5,1174.3,398.4,1174.3,382.1z"/>
	</g>
	<g>
		<path class="st10" d="M983.2,196.5c0,28.5,48,74,48,74s48-45.5,48-74c0-28.5-21.5-51.6-48-51.6
			C1004.7,144.9,983.2,168,983.2,196.5z M1002.9,193.5c0-15.6,12.7-28.3,28.3-28.3c15.6,0,28.3,12.7,28.3,28.3
			c0,15.6-12.6,28.3-28.3,28.3C1015.6,221.7,1002.9,209.1,1002.9,193.5z"/>
	</g>
	<g>
		<path class="st7" d="M1277.7,1012.9h-111.4c-12.8,0-23.2-10.4-23.2-23.2v0H1301v0C1301,1002.5,1290.6,1012.9,1277.7,1012.9z"/>
		<path class="st11" d="M1306.4,794.6V983c0,2.3-0.3,4.5-0.7,6.6h-22.1c-3.4,0-6.6,1-9.3,2.7c-1.7,1.1-3.1,2.4-4.3,4
			c-2.3,2.9-3.7,6.7-3.7,10.7v5.9h-86.6v-5.9c0-6.1-3.1-11.4-7.8-14.5c-1.3-0.9-2.8-1.6-4.3-2.1c-1.6-0.5-3.4-0.8-5.2-0.8h-23.9
			c-0.5-2.1-0.7-4.3-0.7-6.6V794.6c0-16.5,13.3-29.8,29.8-29.8h109.1C1293,764.8,1306.4,778.2,1306.4,794.6z"/>
		<g>
			<path class="st7" d="M1253.8,764.7c-39.1-15.4-66.3-0.2-66.6-0.1l-1.4-2.5c0.3-0.2,7.3-4.1,19.3-6.1c11.1-1.8,28.7-2.3,49.7,6
				L1253.8,764.7z"/>
		</g>
		<rect x="1153.8" y="1004.2" class="st7" width="11.4" height="15.6"/>
		<path class="st12" d="M1151.4,1022.1c0-4.5,3.6-8.1,8.1-8.1c4.5,0,8.1,3.6,8.1,8.1c0,4.5-3.6,8.1-8.1,8.1
			C1155,1030.2,1151.4,1026.6,1151.4,1022.1z"/>
		<path class="st7" d="M1154.5,1022.1c0-2.7,2.2-4.9,4.9-4.9c2.7,0,4.9,2.2,4.9,4.9c0,2.7-2.2,4.9-4.9,4.9
			C1156.8,1027,1154.5,1024.8,1154.5,1022.1z"/>
		<rect x="1271.3" y="1004.2" class="st7" width="11.4" height="15.6"/>
		<path class="st12" d="M1268.9,1022.1c0-4.5,3.6-8.1,8.1-8.1c4.5,0,8.1,3.6,8.1,8.1c0,4.5-3.6,8.1-8.1,8.1
			C1272.5,1030.2,1268.9,1026.6,1268.9,1022.1z"/>
		<path class="st7" d="M1272.1,1022.1c0-2.7,2.2-4.9,4.9-4.9c2.7,0,4.9,2.2,4.9,4.9c0,2.7-2.2,4.9-4.9,4.9
			C1274.3,1027,1272.1,1024.8,1272.1,1022.1z"/>
		<path class="st13" d="M1171.9,764.8v227.7c-1.3-0.9-2.8-1.6-4.3-2.1V764.8H1171.9z"/>
		<rect x="1202.3" y="764.8" class="st13" width="4.3" height="248.1"/>
		<rect x="1234.8" y="764.8" class="st13" width="4.3" height="248.1"/>
		<path class="st13" d="M1274.2,764.8v227.6c-1.7,1.1-3.1,2.4-4.3,4V764.8H1274.2z"/>
	</g>
	<g>
		<path class="st14" d="M1043.5,667.3c0-0.3,4.8-10.2,3.2-10.9c-1.5-0.8-4.2-0.6-4.5,1.1C1041.9,659.2,1043.5,667.3,1043.5,667.3z"
			/>
		<path class="st14" d="M1045.3,673.1c0-1-1.1-15.7-3.6-18.6c-2.5-2.9-7.6-7.1-9.2-7c-1.6,0.1-7.8,8.4-6,14.8c1.9,6.4,9.8,15,9.8,15
			L1045.3,673.1z"/>
		<g>
			<path class="st15" d="M1054.7,655.3l-14.5,4.3c-0.5,0.1-1-0.1-1.1-0.6l-8.3-27.6c-0.1-0.5,0.1-1,0.6-1.1l14.5-4.3
				c0.5-0.1,1,0.1,1.1,0.6l8.3,27.6C1055.5,654.6,1055.2,655.2,1054.7,655.3z"/>
			<path class="st16" d="M1051,656.4l-13.1,3.9c-0.9,0.3-1.7-0.2-2-1.1L1028,633c-0.3-0.9,0.2-1.7,1.1-2l13.1-3.9
				c0.9-0.3,1.7,0.2,2,1.1l7.9,26.2C1052.3,655.3,1051.8,656.2,1051,656.4z"/>
		</g>
		<path class="st14" d="M1031,648.6c0,0,6-9.3,7.5-8.8c2.1,0.7-5.5,12.5-5.5,12.5s5.6-8.8,6.5-8.1c2,1.5-1.2,7-4.3,11.3
			c0,0,5.6-5.2,5.8-4.2c0.6,3.3-6.2,11.1-6.2,11.1l-3.8-8.7V648.6z"/>
		<path class="st14" d="M1026.5,657.2c0.3-1.1,1.8-23.3,2.4-21.2c0.6,2.1,2.1,13.7,2.1,13.7L1026.5,657.2z"/>
		<path class="st17" d="M1122.6,651.1c0,0-0.6,24.1-7.6,43.5c-5.5,15.3-14.9,27.8-31.1,23.2c-1.7-0.5-3.3-1-4.8-1.5c0,0,0,0,0,0
			c-32.8-11.4-43.4-37.6-43.4-37.6c2.4-4,9.5-5.5,9.5-5.5c6.6,0.4,35.7,12.7,37.5,13.1c6.7,1.4,12.1-35.6,16.5-48.4
			c4.4-12.8,22.2-18.5,22.2-18.5L1122.6,651.1z"/>
		<path class="st18" d="M1115.7,677.3l-0.6,17.3c-5.5,15.3-14.9,27.8-31.1,23.2c-1.7-0.5-3.3-1-4.8-1.5c0.5,0.1,10.4,1.4,14.5-2.7
			c4.3-4.3,3.8-18.4,11.6-27.8C1113.2,676.4,1115.7,677.3,1115.7,677.3z"/>
		<path class="st19" d="M1116.6,994.3c0,0,8.1,7.4,6.5,12.6c-1.6,5.2-8.9,8.7-9.9,15.1c-1,6.4-4.9,9.9-8.5,9.9c-3.5,0-16.9,0-16.9,0
			s-2.6-4.5,3.7-5.9c6.3-1.4,8.7-8.9,8.3-15.9c-0.4-7,0.6-16.3,0.6-16.3l13.4-3.1L1116.6,994.3z"/>
		<path class="st7" d="M1027.6,1030.6h49.8c2,0,3.6-1.5,3.6-3.5c0.1-2.9-0.2-7.2-1.8-10.7c-2.7-5.9-4.3-6.9,6.9-24.1
			c-3.4,3.5-12.5,1.9-20.2,0.9c-0.9,1.5-15.2,23.5-18.3,25.8C1044.1,1021.4,1028.7,1020.6,1027.6,1030.6z"/>
		<path class="st7" d="M1105.2,754.6c0,0-36.1,68.1-45.9,105.6c-7.6,29.1,38.8,141.7,38.8,141.7s3.8-0.3,10-2.7
			c6.1-2.4,8.4-8.8,8.4-8.8s-2.8-80.5-12.2-119.5c-2.1-8.7,10.2-36.9,31-52.4c20.8-15.4,29.5-65.2,17.1-68.5
			C1140.1,746.7,1105.2,754.6,1105.2,754.6z"/>
		<path class="st20" d="M1136,735.2c0,0-37.9,139.1-49.4,170.3c-11.5,31.2-29.8,97.5-29.8,97.5s11.5,5.4,26.3,2.9
			c0,0,55.5-81.3,57.9-117.2c1.1-16.6,56.9-82.4,50.7-125.3L1136,735.2z"/>
		<path class="st17" d="M1191.7,778.6c0,0-8.1,4.1-22.3,5.3h0c-16.3,1.4-40.8-1-70.6-17.6c0,0-8.3-6.9,1.9-36
			c7.7-22.1,11.5-68.6,20.9-110.9c0,0,30.6-9.6,55.2-1.3c18.8,6.3,16.9,35.1,20.4,65.1c0.3,2.8,0.7,5.6,1.1,8.4
			C1203.3,724.4,1191.7,778.6,1191.7,778.6z"/>
		<path class="st21" d="M1110.7,556.6c0,0,20.9-34,37.1-16.5c0,0,10.6,2.7,16.6,19.2c6.2,16.8-3.4,31.6-9.9,29.2
			c-4.1-1.5-6.1,5.6-6.1,5.6L1110.7,556.6z"/>
		<path class="st21" d="M1144.6,537.4c0,0,1.4-14.1,22-12.7c0,0-9.7,0.2-11.8,4.2c0,0,7.1-4.6,12.2-2.3c5.2,2.2,7.3,11.9,7.1,15
			c-0.3,3.1-4.2,12.7-7.7,13.2c-3.5,0.5-8-2-8-2L1144.6,537.4z"/>
		<path class="st14" d="M1155,617.2c-1.9-5.2-4.8-10.6-7.1-27l-1.2,0.4l-20.8,7.3c0,0,1.5,6.7,2.4,13c0.4,2.6,0.7,7.2,0.8,11.3
			c0.2,4.1,4.2,4.5,8.4,4.3C1148.4,626,1154.4,621.9,1155,617.2z"/>
		<path class="st22" d="M1125.8,597.9c0,0,1.5,6.7,2.4,13c11.9-2.1,16.7-13.9,18.4-20.3L1125.8,597.9z"/>
		<path class="st21" d="M1148.5,588c0,0,4.8-10.8,5.1-19.5c0.2-6.2-6.1-28.2-28.2-21.7c0,0-6.4,1.6-12,6.6
			c-4.4,4-10.4,12.2,0.3,30.6l3,6.3L1148.5,588z"/>
		<path class="st14" d="M1122.7,604.5c0,0,28.4-3.6,25.9-21.2c-2.5-17.6-0.6-30-18.8-28.4c-18.2,1.6-20.8,8.8-21.4,14.9
			C1107.8,575.8,1115.2,605,1122.7,604.5z"/>
		<path class="st21" d="M1116.8,556.3c0,0,10.7,19.6,23.1,20.9c12.3,1.3,17-2.6,17-2.6s-10.2-5.9-13.9-18.3
			C1143,556.3,1121.2,545.6,1116.8,556.3z"/>
		<path class="st21" d="M1119,557.7c0,0-5.1,5.5-5.9,10.1s-0.1,14-2.8,14.1c0,0-7.9-13.2-2.5-22.1
			C1113.6,550.4,1119,557.7,1119,557.7z"/>
		<path class="st21" d="M1118,558.5c0,0,8.6,20.9,24.7,25.6c0,0-16.9-11.1-20.3-25.3C1119.1,544.8,1118,558.5,1118,558.5z"/>
		<path class="st18" d="M1191.7,778.6c0,0-8.1,4.1-22.3,5.3h0c0,0-11.7-14.7,1.4-31.2c13.1-16.5-1-46.9,9.1-63.4
			c7-11.5,13.8-8.8,17.3-6.1c0.3,2.8,0.7,5.6,1.1,8.4C1203.3,724.4,1191.7,778.6,1191.7,778.6z"/>
		<path class="st14" d="M1243.1,754.2c0,0,1.7,4,4.2,4.3c4,0.4,11.5,3.8,12.7,4.5c3.2,1.9,3,10.4-0.2,11.3
			c-3.2,0.8-4.8-6.4-14.9-8.3c-3.4-0.7-8.4,1.7-10.4-6.5L1243.1,754.2z"/>
		<path class="st17" d="M1176.7,618c29.2,10.7,30.3,62.5,43.3,85.3c13.4,23.5,26.5,54.4,26.5,54.4s-0.2,0.9-5.2,2.4
			c-3.5,1-7.2,0.6-7.2,0.6s-27.6-25-35.1-34.8c-7.5-9.9-25.2-55.6-25.2-55.6S1165.1,613.8,1176.7,618z"/>
		<path class="st14" d="M1235.3,761.5c0,0,0.7,3.5,5,6.3c4.3,2.8,7.8,5.6,8.2,3.9c0.4-1.7-2.4-3.6-3.1-6.8
			C1244.7,761.7,1235.3,761.5,1235.3,761.5z"/>
	</g>
	<rect x="560.9" y="589.2" class="st10" width="424" height="306.9"/>
	<path class="st11" d="M878.1,979.4v41.4c0,0.5,0,1,0,1.5h-212c0-0.5,0-1,0-1.5v-41.4c0-18.9,12.2-34.3,27.1-34.3H851
		C865.9,945.1,878.1,960.5,878.1,979.4z"/>
	<g>
		<g>
			<polygon class="st23" points="771.9,997.7 758.2,985.5 762.1,981.2 770.9,989.1 783.1,971.7 787.8,975 			"/>
		</g>
		<g>
			<path class="st23" d="M773,1010.8c-14.4,0-26.1-11.7-26.1-26.1c0-14.4,11.7-26.1,26.1-26.1c14.4,0,26.1,11.7,26.1,26.1
				C799.1,999.1,787.4,1010.8,773,1010.8z M773,959.9c-13.7,0-24.8,11.1-24.8,24.8c0,13.7,11.1,24.8,24.8,24.8s24.8-11.1,24.8-24.8
				C797.8,971,786.7,959.9,773,959.9z"/>
		</g>
	</g>
	<path class="st1" d="M598.8,389.5c0,0,9.8-21.9,33.3-19.4c0,0,34.1-36.4,70.4-4.9c0,0,38.6-7.8,67.2,6.8
		c19.1,9.7,25.4,19.9,25.4,19.9L598.8,389.5z"/>
	<path class="st1" d="M737.1,337.8c0.1,0,0.2,0,0.4,0c1.5,0,2.9-0.6,4-1.6c4.9-4.5,20-15.7,36.2-2.8c1.3,1,2.9,1.4,4.5,1.2
		c6.3-0.9,22.6-2.4,35.4,4.5c0.3,0.2,0.7,0.4,1,0.6c5.3,3,3.1,11.1-3,11.1l-78.3-1C729.6,349.5,729.5,338.1,737.1,337.8z"/>
	<g>
		<path class="st23" d="M932.7,851.1h-84.2c-14.5,0-26.3-11.8-26.3-26.3V647c0-14.5,11.8-26.3,26.3-26.3h84.2
			c14.5,0,26.3,11.8,26.3,26.3v177.7C959,839.3,947.2,851.1,932.7,851.1z M848.6,623.3c-13,0-23.6,10.6-23.6,23.6v177.7
			c0,13,10.6,23.6,23.6,23.6h84.2c13,0,23.6-10.6,23.6-23.6V647c0-13-10.6-23.6-23.6-23.6H848.6z"/>
	</g>
	<path class="st23" d="M771.1,736.5h-95.6c-17.9,0-32.4-14.5-32.4-32.4v-49.8c0-17.9,14.5-32.4,32.4-32.4h95.6
		c17.9,0,32.4,14.5,32.4,32.4v49.8C803.4,722,788.9,736.5,771.1,736.5z"/>
	<g>
		<path class="st23" d="M785.8,851.1H660.7c-10.4,0-18.9-8.5-18.9-18.9V773c0-10.4,8.5-18.9,18.9-18.9h125.2
			c10.4,0,18.9,8.5,18.9,18.9v59.1C804.8,842.6,796.3,851.1,785.8,851.1z M660.7,756.8c-9,0-16.2,7.3-16.2,16.2v59.1
			c0,9,7.3,16.2,16.2,16.2h125.2c9,0,16.2-7.3,16.2-16.2V773c0-9-7.3-16.2-16.2-16.2H660.7z"/>
	</g>
	<g>
		<path class="st23" d="M855.6,685.7c0,20.8,35,54,35,54s35-33.2,35-54c0-20.8-15.7-37.6-35-37.6C871.3,648.1,855.6,665,855.6,685.7
			z M870,683.5c0-11.4,9.3-20.6,20.6-20.6c11.4,0,20.6,9.3,20.6,20.6c0,11.4-9.2,20.6-20.6,20.6C879.3,704.1,870,694.9,870,683.5z"
			/>
	</g>
	<path class="st10" d="M787.1,697.8l-1.7,0c-0.1,0-0.1,0-0.2,0l-12.7,3.5c-0.2,0-0.3,0-0.5,0l-17.9-6.9c-0.5-0.2,2.3-1.6,2.7-1.9
		c4.5-3.2,18.6-11.2,23.9-14.7c0.9-0.6,0.6-1.9-0.4-2.1c-0.5-0.1-1-0.1-1.4,0.1l-26,9.4l-3.5-2.2c-0.5-0.3-1.2-0.2-1.5,0.3l-1.7,2.7
		c-0.3,0.5-0.2,1.2,0.3,1.5l-3.3,1.2c-0.2,0.1-0.3,0.1-0.5,0l-16-6.8c-1.4-0.6-3-0.7-4.5-0.3c-0.6,0.2-1.2,0.4-1.8,0.5
		c-1.2,0.4-1.9,1.7-1.5,2.9l0.2,0.6c0.7,2,2.2,3.6,4.2,4.3l13,4.9c0.3,0.1,0.4,0.3,0.4,0.6l0.1,5.6l-0.7-0.5
		c-0.5-0.3-1.2-0.2-1.5,0.3l-1.7,2.7c-0.3,0.5-0.2,1.2,0.3,1.5l3.8,2.4l0.2,8.7c0,0.7,0.2,1.4,0.6,2c0.5,0.7,1.1,1.6,1.2,1.5
		c0.6-0.3,6.5-13.8,8.5-19.1c0.1-0.3,2.7,0.6,3,0.8l17.7,5.4c0.2,0.1,0.4,0.3,0.4,0.5l0.8,5.2c0.1,0.6,0.4,1.1,0.8,1.5l0,0
		c0.3,0.3,0.8,0.2,1-0.1l4.1-6.3c0.1-0.2,0.3-0.3,0.5-0.3l1.9-0.1c0.6,0,0.9-0.7,0.4-1.2l-0.5-0.4l9.6-6.8
		C788,698.7,787.8,697.8,787.1,697.8z"/>
	<g>
		<g>
			<path class="st23" d="M761.6,828.7c-14.4,0-26.2-11.7-26.2-26.2c0-14.4,11.7-26.2,26.2-26.2c14.4,0,26.2,11.7,26.2,26.2
				C787.8,817,776,828.7,761.6,828.7z M761.6,779.3c-12.9,0-23.3,10.5-23.3,23.3c0,12.8,10.5,23.3,23.3,23.3
				c12.8,0,23.3-10.5,23.3-23.3C784.9,789.7,774.5,779.3,761.6,779.3z"/>
		</g>
		<g>
			<path class="st23" d="M761.4,806.1L761.4,806.1c-0.6,0-1.1-0.5-1.1-1.1v-14.2c0-0.6,0.5-1.1,1.1-1.1l0,0c0.6,0,1.1,0.5,1.1,1.1
				V805C762.5,805.6,762,806.1,761.4,806.1z"/>
			<path class="st23" d="M761.1,805.6L761.1,805.6c-0.2-0.2-0.2-0.6,0-0.8l14.5-14.5c0.2-0.2,0.5-0.2,0.7,0l0,0
				c0.2,0.2,0.2,0.5,0,0.7l-14.5,14.5C761.7,805.8,761.3,805.8,761.1,805.6z"/>
			<path class="st23" d="M760,805.1c0-0.8,0.6-1.4,1.4-1.4c0.8,0,1.4,0.6,1.4,1.4c0,0.8-0.6,1.4-1.4,1.4
				C760.6,806.5,760,805.9,760,805.1z"/>
		</g>
	</g>
	<g>
		<rect x="660.3" y="771.2" class="st23" width="57.5" height="6"/>
		<rect x="660.3" y="784.8" class="st23" width="57.5" height="6"/>
		<rect x="660.3" y="798.5" class="st23" width="34.5" height="6"/>
	</g>
	<g>
		<rect x="861.9" y="771.5" class="st23" width="57.5" height="6"/>
		<rect x="861.9" y="785.1" class="st23" width="57.5" height="6"/>
		<rect x="861.9" y="798.8" class="st23" width="34.5" height="6"/>
	</g>
	<g>
		<rect x="663.9" y="648.3" class="st10" width="57.5" height="6"/>
		<rect x="663.9" y="662" class="st10" width="57.5" height="6"/>
		<rect x="663.9" y="675.6" class="st10" width="34.5" height="6"/>
	</g>
	<g>
		<path class="st10" d="M1203.7,319.5c-0.7,0-1.3-0.5-1.3-1.2c0,0-0.2-2.4-0.7-6.5c-0.1-0.7,0.5-1.4,1.2-1.5
			c0.7-0.1,1.4,0.5,1.5,1.2c0.4,4.2,0.7,6.5,0.7,6.6c0.1,0.7-0.5,1.4-1.2,1.5C1203.8,319.5,1203.7,319.5,1203.7,319.5z
			 M1202.3,306.5c-0.7,0-1.3-0.5-1.3-1.2c-0.2-2-0.5-4.1-0.8-6.5c-0.1-0.7,0.4-1.4,1.2-1.5c0.7-0.1,1.4,0.4,1.5,1.2
			c0.3,2.3,0.5,4.5,0.8,6.5c0.1,0.7-0.4,1.4-1.2,1.5C1202.4,306.5,1202.4,306.5,1202.3,306.5z M1200.8,293.5c-0.7,0-1.2-0.5-1.3-1.2
			c-0.3-2.1-0.5-4.2-0.8-6.4c-0.1-0.7,0.4-1.4,1.2-1.5c0.7-0.1,1.4,0.4,1.5,1.2c0.3,2.2,0.6,4.4,0.8,6.5c0.1,0.7-0.4,1.4-1.2,1.5
			C1200.9,293.5,1200.8,293.5,1200.8,293.5z M1199.1,280.6c-0.7,0-1.2-0.5-1.3-1.2c-0.3-2.1-0.6-4.2-0.9-6.4
			c-0.1-0.7,0.4-1.4,1.1-1.5c0.7-0.1,1.4,0.4,1.5,1.1c0.3,2.2,0.6,4.4,0.9,6.4c0.1,0.7-0.4,1.4-1.1,1.5
			C1199.2,280.6,1199.1,280.6,1199.1,280.6z M1197.2,267.8c-0.7,0-1.2-0.5-1.3-1.1c-0.3-2.1-0.6-4.2-1-6.4c-0.1-0.7,0.4-1.4,1.1-1.5
			c0.7-0.1,1.4,0.4,1.5,1.1c0.3,2.2,0.7,4.3,1,6.4c0.1,0.7-0.4,1.4-1.1,1.5C1197.3,267.8,1197.3,267.8,1197.2,267.8z M1195.2,254.9
			c-0.6,0-1.2-0.5-1.3-1.1c-0.3-2.1-0.7-4.2-1-6.4c-0.1-0.7,0.4-1.4,1.1-1.5c0.7-0.1,1.4,0.4,1.5,1.1c0.4,2.2,0.7,4.3,1,6.4
			c0.1,0.7-0.4,1.4-1.1,1.5C1195.4,254.9,1195.3,254.9,1195.2,254.9z M1193.1,242.1c-0.6,0-1.2-0.5-1.3-1.1
			c-0.4-2.1-0.7-4.2-1.1-6.4c-0.1-0.7,0.4-1.4,1.1-1.6c0.7-0.1,1.4,0.4,1.6,1.1c0.4,2.2,0.8,4.3,1.1,6.4c0.1,0.7-0.4,1.4-1.1,1.6
			C1193.3,242.1,1193.2,242.1,1193.1,242.1z M1190.8,229.3c-0.6,0-1.2-0.5-1.3-1.1c-0.4-2.1-0.8-4.2-1.2-6.4
			c-0.1-0.7,0.3-1.4,1.1-1.6c0.7-0.1,1.4,0.3,1.6,1.1c0.4,2.1,0.8,4.3,1.2,6.4c0.1,0.7-0.3,1.4-1.1,1.6
			C1191,229.3,1190.9,229.3,1190.8,229.3z M1188.4,216.5c-0.6,0-1.2-0.4-1.3-1.1c-0.4-2.1-0.9-4.2-1.3-6.4c-0.2-0.7,0.3-1.4,1-1.6
			c0.7-0.2,1.4,0.3,1.6,1c0.4,2.1,0.9,4.3,1.3,6.4c0.1,0.7-0.3,1.4-1.1,1.6C1188.5,216.5,1188.4,216.5,1188.4,216.5z M1185.7,203.8
			c-0.6,0-1.2-0.4-1.3-1.1c-0.5-2.1-0.9-4.2-1.4-6.3c-0.2-0.7,0.3-1.4,1-1.6c0.7-0.2,1.4,0.3,1.6,1c0.5,2.1,0.9,4.2,1.4,6.3
			c0.2,0.7-0.3,1.4-1,1.6C1185.9,203.8,1185.8,203.8,1185.7,203.8z M1182.9,191.2c-0.6,0-1.2-0.4-1.3-1c-0.5-2.1-1-4.2-1.5-6.3
			c-0.2-0.7,0.3-1.4,1-1.6c0.7-0.2,1.4,0.3,1.6,1c0.5,2.1,1,4.2,1.5,6.3c0.2,0.7-0.3,1.4-1,1.6
			C1183.1,191.1,1183,191.2,1182.9,191.2z M1179.8,178.5c-0.6,0-1.1-0.4-1.3-1c-0.5-2.1-1.1-4.2-1.6-6.3c-0.2-0.7,0.2-1.5,1-1.6
			c0.7-0.2,1.5,0.2,1.6,1c0.6,2.1,1.1,4.2,1.6,6.3c0.2,0.7-0.3,1.4-1,1.6C1180,178.5,1179.9,178.5,1179.8,178.5z M1176.5,166
			c-0.6,0-1.1-0.4-1.3-1c-0.6-2.1-1.2-4.2-1.8-6.2c-0.2-0.7,0.2-1.5,0.9-1.7c0.7-0.2,1.5,0.2,1.7,0.9c0.6,2.1,1.2,4.2,1.8,6.3
			c0.2,0.7-0.2,1.5-0.9,1.7C1176.7,165.9,1176.6,166,1176.5,166z M1172.9,153.5c-0.6,0-1.1-0.4-1.3-1c-0.6-2.1-1.3-4.2-1.9-6.2
			c-0.2-0.7,0.2-1.5,0.9-1.7c0.7-0.2,1.5,0.2,1.7,0.9c0.7,2,1.3,4.1,1.9,6.2c0.2,0.7-0.2,1.5-0.9,1.7
			C1173.1,153.5,1173,153.5,1172.9,153.5z M1168.9,141.1c-0.6,0-1.1-0.4-1.3-0.9c-0.7-2.1-1.4-4.1-2.1-6.1c-0.3-0.7,0.1-1.5,0.8-1.7
			c0.7-0.3,1.5,0.1,1.7,0.8c0.7,2,1.4,4.1,2.1,6.2c0.2,0.7-0.1,1.5-0.8,1.7C1169.2,141.1,1169,141.1,1168.9,141.1z M1037,136.8
			c-0.2,0-0.3,0-0.5-0.1c-0.7-0.3-1-1-0.8-1.7c0.5-1.2,0.9-2.4,1.4-3.5c0.3-0.7,1.1-1,1.7-0.7c0.7,0.3,1,1.1,0.7,1.7
			c-0.5,1.1-0.9,2.3-1.4,3.5C1038.1,136.5,1037.6,136.8,1037,136.8z M1164.5,128.9c-0.5,0-1.1-0.3-1.3-0.9c-0.8-2-1.6-4.1-2.4-6
			c-0.3-0.7,0.1-1.5,0.7-1.8c0.7-0.3,1.5,0.1,1.8,0.7c0.8,2,1.6,4,2.4,6.1c0.3,0.7-0.1,1.5-0.8,1.7
			C1164.8,128.9,1164.7,128.9,1164.5,128.9z M1040.9,127.3c-0.2,0-0.4,0-0.5-0.1c-0.7-0.3-1-1.1-0.7-1.8c0.9-2,1.8-4,2.6-6
			c0.3-0.7,1.1-1,1.8-0.7c0.7,0.3,1,1.1,0.7,1.8c-0.9,1.9-1.8,3.9-2.6,5.9C1041.9,127,1041.4,127.3,1040.9,127.3z M1159.6,116.9
			c-0.5,0-1-0.3-1.2-0.8c-0.9-2-1.8-4-2.7-5.9c-0.3-0.7,0-1.5,0.6-1.8c0.7-0.3,1.5,0,1.8,0.6c0.9,1.9,1.8,3.9,2.7,6
			c0.3,0.7,0,1.5-0.7,1.8C1160,116.8,1159.8,116.9,1159.6,116.9z M1046.3,115.5c-0.2,0-0.4,0-0.6-0.1c-0.7-0.3-0.9-1.1-0.6-1.8
			c1-2,2-3.9,3-5.8c0.3-0.7,1.2-0.9,1.8-0.6c0.7,0.3,0.9,1.2,0.6,1.8c-1,1.8-2,3.8-2.9,5.7C1047.3,115.3,1046.8,115.5,1046.3,115.5z
			 M1154.1,105.1c-0.5,0-1-0.3-1.2-0.7c-1-2-2-3.9-3-5.7c-0.4-0.6-0.1-1.5,0.5-1.8c0.6-0.4,1.5-0.1,1.8,0.5c1,1.8,2.1,3.8,3.1,5.8
			c0.3,0.7,0.1,1.5-0.6,1.8C1154.5,105.1,1154.3,105.1,1154.1,105.1z M1052.4,104.1c-0.2,0-0.5-0.1-0.7-0.2
			c-0.6-0.4-0.9-1.2-0.5-1.8c1.1-1.9,2.2-3.8,3.4-5.6c0.4-0.6,1.2-0.8,1.9-0.4c0.6,0.4,0.8,1.2,0.4,1.9c-1.1,1.8-2.2,3.6-3.3,5.5
			C1053.3,103.9,1052.9,104.1,1052.4,104.1z M1147.7,93.8c-0.4,0-0.9-0.2-1.1-0.6c-1.2-1.9-2.4-3.7-3.6-5.3
			c-0.4-0.6-0.3-1.4,0.3-1.9c0.6-0.4,1.4-0.3,1.9,0.3c1.2,1.7,2.4,3.6,3.6,5.5c0.4,0.6,0.2,1.5-0.4,1.9
			C1148.2,93.7,1147.9,93.8,1147.7,93.8z M1059.4,93.2c-0.3,0-0.5-0.1-0.8-0.2c-0.6-0.4-0.8-1.3-0.3-1.9c1.3-1.8,2.6-3.6,3.9-5.3
			c0.5-0.6,1.3-0.7,1.9-0.2c0.6,0.5,0.7,1.3,0.2,1.9c-1.3,1.6-2.6,3.3-3.8,5.1C1060.2,93,1059.8,93.2,1059.4,93.2z M1140.2,83.3
			c-0.4,0-0.8-0.2-1-0.5c-1.4-1.7-2.8-3.3-4.2-4.7c-0.5-0.5-0.5-1.4,0-1.9c0.5-0.5,1.4-0.5,1.9,0c1.5,1.5,3,3.1,4.4,4.9
			c0.5,0.6,0.4,1.4-0.2,1.9C1140.8,83.2,1140.5,83.3,1140.2,83.3z M1067.4,83c-0.3,0-0.6-0.1-0.9-0.4c-0.5-0.5-0.6-1.4-0.1-1.9
			c1.5-1.7,3.1-3.2,4.6-4.7c0.5-0.5,1.4-0.5,1.9,0.1c0.5,0.5,0.5,1.4-0.1,1.9c-1.5,1.4-3,2.9-4.5,4.5
			C1068.2,82.9,1067.8,83,1067.4,83z M1077,74.3c-0.4,0-0.8-0.2-1.1-0.5c-0.4-0.6-0.3-1.4,0.3-1.9c1.8-1.4,3.7-2.6,5.5-3.7
			c0.6-0.4,1.5-0.1,1.8,0.5c0.4,0.6,0.1,1.5-0.5,1.8c-1.8,1-3.5,2.2-5.3,3.5C1077.5,74.2,1077.3,74.3,1077,74.3z M1131.1,74.1
			c-0.3,0-0.6-0.1-0.8-0.3c-1.7-1.4-3.4-2.6-5.1-3.6c-0.6-0.4-0.9-1.2-0.5-1.8c0.4-0.6,1.2-0.9,1.8-0.5c1.8,1.1,3.7,2.4,5.4,3.8
			c0.6,0.5,0.7,1.3,0.2,1.9C1131.8,73.9,1131.5,74.1,1131.1,74.1z M1088.2,67.9c-0.5,0-1-0.3-1.2-0.8c-0.3-0.7,0.1-1.5,0.8-1.7
			c2.1-0.8,4.2-1.5,6.4-2c0.7-0.2,1.4,0.3,1.6,1c0.2,0.7-0.3,1.4-1,1.6c-2,0.5-4,1.1-6,1.9C1088.5,67.9,1088.4,67.9,1088.2,67.9z
			 M1120,67.7c-0.2,0-0.3,0-0.5-0.1c-1-0.4-2-0.7-3-0.9c-1-0.3-2.1-0.5-3-0.7c-0.7-0.1-1.2-0.8-1.1-1.6c0.1-0.7,0.8-1.2,1.6-1.1
			c1,0.2,2.1,0.4,3.2,0.7c1.1,0.3,2.2,0.6,3.3,1c0.7,0.3,1.1,1,0.8,1.7C1121,67.3,1120.5,67.7,1120,67.7z M1107.3,65.1
			c0,0-0.1,0-0.1,0c-2.1-0.2-4.2-0.2-6.3,0c-0.7,0-1.4-0.5-1.4-1.3c0-0.7,0.5-1.4,1.3-1.4c2.2-0.1,4.4-0.1,6.7,0
			c0.7,0.1,1.3,0.7,1.2,1.4C1108.6,64.6,1108,65.1,1107.3,65.1z"/>
	</g>
	<path class="st24" d="M1562.7,1035L33,1034.5c-1,0-1.9-0.8-1.9-1.9l0-1c0-1,0.8-1.9,1.9-1.9l1529.7,0.5c1,0,1.9,0.8,1.9,1.9l0,1
		C1564.6,1034.2,1563.8,1035,1562.7,1035z"/>
	<path class="st25" d="M561.1,467.6c0,0,18.3-1.3,22.3,13.1c0,0,14.1-28.7,43.9-26.4c29.8,2.4,35.3,19.9,35.3,19.9s17.1-5.9,31.2,2
		c14.2,7.8,13.3,22.1,13.3,22.1s13-18.2,39.1-11.7c0,0-5.2-26.4,26.2-32.4c31.4-6,44.7,4.4,44.7,4.4s35.6-22.9,67,5.8
		c0,0,23.1-4.5,34.3,9.7c0,0,23.1-27.9,66.6-23v138h-424L561.1,467.6z"/>
	<path class="st1" d="M561.1,536.5c0,0,30.8-7.8,58.3,10.3c0,0,6.7-8,24.1-6c17.4,2,22.2,18.1,22.2,18.1s61-20.2,91.3,30.2H560.9
		L561.1,536.5z"/>
	<path class="st1" d="M794.5,589.2c0,0,1.6-30.9,33.8-38.3c0,0-16.7-7.4-8.3-25.7c8.4-18.4,28.9-19.7,28.9-19.7s2.1-33.2,60.1-27.5
		c16.3,1.6,33.5,11.4,36.2,28.4c0,0,6.3-10.3,19.3-9.7c0,0,1.6-18.9,20.3-18.7v111.2H794.5z"/>
	<g>
		<path class="st17" d="M957.7,323.5l-24.3,84.3l-0.8-0.1l-83.2-10.1c0,0,38.5-8,42.5-12.6c3.8-4.4,43.8-56,55.5-61.6
			c0.7-0.3,1.3-0.5,1.8-0.5C957.7,323.5,957.7,323.5,957.7,323.5z"/>
		<path class="st26" d="M932.6,407.8l-83.2-10.1c0,0,38.5-8,42.5-12.6c3.8-4.4,43.8-56,55.5-61.6c-10.4,15-34.4,51.2-33.3,61.7
			C915,395.2,926.8,404,932.6,407.8z"/>
		<path class="st27" d="M941.6,433.2c-2.8,1-11.3,3.6-23,7c-33.5,9.7-93,25.4-119.3,23.4c-23.6-1.7-148.2-11.2-234.4-18.8
			c20.9-36.6,46.9-56.9,70.7-68c100.4,8.2,231.8,19.3,248.5,22.6c27.5,5.3,64,9.6,64,9.6s0.2,1.1,0.5,2.9
			C949.3,417.7,950,430.3,941.6,433.2z"/>
		<path class="st25" d="M949,418c0,0.2,0,0.4,0,0.6c-0.1,4.6-1,9.7-4.2,12.6c-0.1,0.1-0.2,0.2-0.3,0.3c-0.2,0.2-0.5,0.4-0.7,0.5
			c0,0,0,0,0,0v0c-0.1,0.1-0.3,0.2-0.4,0.2c-0.1,0.1-0.3,0.2-0.4,0.2c0,0,0,0,0,0c-0.1,0.1-0.3,0.1-0.4,0.2
			c-0.1,0.1-0.3,0.1-0.4,0.2c-0.1,0.1-0.3,0.1-0.5,0.2c0,0-0.1,0-0.1,0v0c0,0-0.1,0-0.1,0c0,0-0.1,0-0.2,0v0c-0.1,0-0.1,0-0.2,0v0
			c-0.1,0-0.1,0-0.2,0.1c-0.1,0-0.1,0-0.2,0.1c0,0,0,0,0,0v0c-0.1,0-0.1,0-0.2,0.1c-0.1,0-0.1,0-0.2,0.1h0c-0.1,0-0.1,0-0.2,0.1
			c-0.1,0-0.1,0-0.2,0.1c-0.1,0-0.3,0.1-0.4,0.1h0c-0.1,0-0.2,0-0.2,0.1h0v0c-0.1,0-0.2,0-0.2,0.1c-0.1,0-0.1,0-0.2,0.1
			c-0.6,0.2-1.3,0.4-2.1,0.7c-0.1,0-0.3,0.1-0.4,0.1c-2,0.6-4.5,1.4-7.3,2.2c-0.3,0.1-0.6,0.2-0.9,0.3c-0.5,0.2-1,0.3-1.5,0.5
			c-0.1,0-0.2,0.1-0.3,0.1c-0.2,0-0.3,0.1-0.5,0.1c-0.2,0-0.3,0.1-0.5,0.1c-0.2,0-0.3,0.1-0.5,0.1c-0.2,0-0.3,0.1-0.5,0.1
			c-0.2,0-0.3,0.1-0.5,0.1c-0.2,0-0.3,0.1-0.5,0.2c-0.2,0-0.3,0.1-0.5,0.1c0,0,0,0,0,0c-0.2,0-0.3,0.1-0.5,0.1
			c-0.1,0-0.2,0.1-0.4,0.1c0,0-0.1,0-0.1,0c-0.2,0-0.3,0.1-0.5,0.1c-0.9,0.3-1.8,0.5-2.7,0.8c-0.5,0.2-1.1,0.3-1.6,0.5
			c-0.5,0.1-0.9,0.3-1.4,0.4c-0.4,0.1-0.7,0.2-1.1,0.3c-1.4,0.4-2.8,0.8-4.3,1.2c-0.3,0.1-0.6,0.2-0.9,0.2c-0.5,0.1-1,0.3-1.5,0.4
			c-0.5,0.1-0.9,0.3-1.4,0.4c-0.5,0.1-1,0.3-1.6,0.4c-17.4,4.8-38.5,10.2-58,14.2c-0.7,0.1-1.4,0.3-2.1,0.4c-0.3,0.1-0.7,0.1-1,0.2
			c-0.7,0.1-1.4,0.3-2,0.4c-2,0.4-4,0.8-6,1.1c-0.7,0.1-1.3,0.2-2,0.3c-0.3,0.1-0.7,0.1-1,0.2c-0.6,0.1-1.3,0.2-1.9,0.3
			c-0.6,0.1-1.3,0.2-1.9,0.3c-0.6,0.1-1.3,0.2-1.9,0.3c-0.6,0.1-1.3,0.2-1.9,0.3c-0.6,0.1-1.2,0.2-1.8,0.3c-0.6,0.1-1.2,0.2-1.8,0.2
			c-0.3,0-0.6,0.1-0.9,0.1c-1.2,0.1-2.4,0.3-3.5,0.4c-0.3,0-0.6,0.1-0.9,0.1c-0.6,0.1-1.1,0.1-1.7,0.2c-1.1,0.1-2.2,0.2-3.3,0.3
			c-0.8,0.1-1.6,0.1-2.4,0.1c-0.5,0-1,0-1.5,0.1c-0.7,0-1.5,0-2.2,0.1c-1,0-1.9,0-2.8,0c-0.5,0-0.9,0-1.3,0c-0.2,0-0.4,0-0.6,0
			c-0.4,0-0.8,0-1.3-0.1c-0.1,0-0.3,0-0.5,0c0,0-0.1,0-0.1,0c-0.1,0-0.2,0-0.3,0c-0.4,0-0.8-0.1-1.2-0.1c-0.1,0-0.2,0-0.4,0
			c-0.1,0-0.3,0-0.4,0c-0.2,0-0.5,0-0.7,0c-0.1,0-0.3,0-0.4,0c-0.1,0-0.3,0-0.4,0c-0.3,0-0.5,0-0.8-0.1c-0.3,0-0.5,0-0.8-0.1
			c-0.1,0-0.3,0-0.4,0c-0.4,0-0.7-0.1-1.1-0.1c-0.2,0-0.4,0-0.5,0c-0.4,0-0.7-0.1-1.1-0.1c-0.2,0-0.3,0-0.5,0c-0.5,0-1-0.1-1.5-0.1
			c-1.4-0.1-2.9-0.2-4.4-0.3c-0.2,0-0.4,0-0.6,0c-0.4,0-0.8-0.1-1.2-0.1c-0.6,0-1.2-0.1-1.8-0.1c-0.3,0-0.5,0-0.8-0.1
			c-0.6,0-1.2-0.1-1.8-0.1c-0.2,0-0.4,0-0.7,0c-0.4,0-0.8-0.1-1.3-0.1l-1.4-0.1c-0.2,0-0.5,0-0.7-0.1c-0.2,0-0.5,0-0.7-0.1
			c-0.4,0-0.7-0.1-1.1-0.1c-2.1-0.2-4.4-0.3-6.7-0.5c-0.3,0-0.7-0.1-1-0.1c-0.5,0-1-0.1-1.6-0.1c-1.2-0.1-2.4-0.2-3.7-0.3
			c-0.1,0-0.2,0-0.3,0c-1.1-0.1-2.2-0.2-3.3-0.3c-0.1,0-0.1,0-0.2,0c-6.6-0.5-13.8-1.1-21.4-1.7c-0.4,0-0.8-0.1-1.1-0.1
			c-1.5-0.1-3.1-0.2-4.6-0.4c-1-0.1-2-0.2-2.9-0.2c-0.1,0-0.1,0-0.2,0c-1.1-0.1-2.3-0.2-3.4-0.3c-0.1,0-0.3,0-0.4,0
			c-2-0.2-4-0.3-6.1-0.5c-0.5,0-1.1-0.1-1.6-0.1c-0.2,0-0.3,0-0.5,0c-1.8-0.1-3.6-0.3-5.4-0.4c-0.8-0.1-1.6-0.1-2.4-0.2
			c-0.5,0-1.1-0.1-1.6-0.1c-1.1-0.1-2.2-0.2-3.2-0.3c-1.6-0.1-3.2-0.3-4.9-0.4c-0.1,0-0.3,0-0.4,0c-0.7-0.1-1.3-0.1-2-0.2
			c0,0-0.1,0-0.1,0c-2-0.2-4-0.3-6-0.5c-0.1,0-0.1,0-0.2,0c-0.2,0-0.4,0-0.6,0c-1.2-0.1-2.4-0.2-3.6-0.3c-0.9-0.1-1.8-0.1-2.7-0.2
			c-0.6,0-1.1-0.1-1.7-0.1c-2.4-0.2-4.7-0.4-7.1-0.6l-0.1,0c-3.9-0.3-7.9-0.6-11.8-1c-0.5,0-1.1-0.1-1.6-0.1l-0.1,0
			c-1.7-0.1-3.5-0.3-5.2-0.4c-0.5,0-1.1-0.1-1.6-0.1c-1.5-0.1-3-0.2-4.5-0.4c-3-0.3-6.1-0.5-9.1-0.7c-1.9-0.2-3.9-0.3-5.8-0.5
			c-1.2-0.1-2.4-0.2-3.6-0.3c-2.9-0.2-5.8-0.5-8.6-0.7c-0.1,0-0.3,0-0.4,0c-1.8-0.2-3.6-0.3-5.4-0.4c-2.5-0.2-5.1-0.4-7.6-0.6
			c-1-0.1-2-0.2-3-0.3c-0.3,0-0.6-0.1-0.9-0.1c-2-0.2-4.1-0.3-6.1-0.5c-0.3,0-0.6,0-0.9-0.1c-1.4-0.1-2.8-0.2-4.2-0.4
			c-5.8-0.5-11.6-1-17.2-1.5c-0.7-0.1-1.3-0.1-2-0.2c-0.4,0-0.8-0.1-1.2-0.1c-0.5-0.1-1.1-0.1-1.6-0.1c-1.1-0.1-2.2-0.2-3.3-0.3
			c-20.9-1.8-39.5-3.6-53.9-5c-1.5-0.1-2.9-0.3-4.3-0.4c-3.4-0.4-6.5-0.7-9.4-1c-8-0.9-13.4-1.7-15.6-2.2
			c-11.6-2.9-31.1-10.7-43-18.7c-7.2-4.8-11.6-9.8-10-13.9c2.1-5.2,6.7-8.3,11.3-10.6c4.1-2,8.2-3.4,10.9-5c0.2-0.1,0.3-0.2,0.5-0.3
			c0.5-0.3,0.9-0.6,1.3-1c0.1-0.1,0.1-0.1,0.2-0.2c1.1-1,2.8-2.6,5.3-4.5c1.7-1.3,3.7-2.6,6.1-4c0,0,0,0,0,0
			c10.4-6.1,27.8-12.5,54.4-10.6c0,0,51.9,4.1,116.7,9.4c0,0,0,0,0,0c6.5,0.5,13,1.1,19.7,1.6c0,0,0,0,0,0c2.2,0.2,4.5,0.4,6.7,0.5
			c3.4,0.3,6.7,0.6,10.1,0.8c0,0,0,0,0,0c5.7,0.5,11.4,0.9,17.1,1.4c1.1,0.1,2.3,0.2,3.4,0.3c2.3,0.2,4.6,0.4,6.9,0.6
			c4.6,0.4,9.2,0.8,13.8,1.2c2.3,0.2,4.6,0.4,6.9,0.6c8.2,0.7,16.3,1.4,24.3,2.1h0c23.1,2,45.3,3.9,64.9,5.7c0,0,0,0,0,0
			c1,0.1,2.1,0.2,3.1,0.3c11.5,1.1,22.2,2,31.5,2.9c4.5,0.4,8.7,0.9,12.5,1.3c14,1.4,23.8,2.6,27.6,3.3c9.9,1.9,21,3.7,31.1,5.2
			c0.8,0.1,1.7,0.2,2.5,0.4c0,0,0.1,0,0.1,0c1.3,0.2,2.5,0.4,3.7,0.5c0,0,0.1,0,0.1,0c1.4,0.2,2.8,0.4,4.1,0.6
			c2,0.3,3.8,0.5,5.6,0.8c0.8,0.1,1.5,0.2,2.2,0.3c8.7,1.2,14.5,1.8,14.5,1.8s0,0.2,0.1,0.4c0,0,0,0,0,0.1c0,0.1,0,0.2,0,0.3
			c0,0.2,0.1,0.4,0.1,0.7c0.1,0.3,0.1,0.7,0.2,1.1c0,0,0,0,0,0c0,0.1,0,0.2,0,0.3c0,0.4,0.1,0.7,0.1,1.1c0,0.3,0.1,0.6,0.1,0.9
			c0,0.2,0,0.3,0,0.5c0,0.2,0,0.4,0,0.6c0,0.3,0,0.5,0.1,0.8c0,0.1,0,0.2,0,0.3c0,0.2,0,0.4,0,0.6c0,0.1,0,0.2,0,0.3
			c0,0.2,0,0.4,0,0.6C949,417.8,949,417.9,949,418z"/>
		<path class="st28" d="M949,418c0,0.2,0,0.4,0,0.6c-0.1,4.6-1,9.7-4.2,12.6c-0.1,0.1-0.2,0.2-0.3,0.3c-0.2,0.2-0.5,0.4-0.7,0.5
			c0,0,0,0,0,0v0c-0.1,0.1-0.3,0.2-0.4,0.2c-0.1,0.1-0.3,0.2-0.4,0.2c0,0,0,0,0,0c-0.1,0.1-0.3,0.1-0.4,0.2
			c-0.1,0.1-0.3,0.1-0.4,0.2c-0.1,0.1-0.3,0.1-0.5,0.2c0,0-0.1,0-0.1,0v0c0,0-0.1,0-0.1,0c0,0-0.1,0-0.2,0v0c-0.1,0-0.1,0-0.2,0v0
			c-0.1,0-0.1,0-0.2,0.1c-0.1,0-0.1,0-0.2,0.1c0,0,0,0,0,0v0c-0.1,0-0.1,0-0.2,0.1c-0.1,0-0.1,0-0.2,0.1h0c-0.1,0-0.1,0-0.2,0.1
			c-0.1,0-0.1,0-0.2,0.1c-0.1,0-0.3,0.1-0.4,0.1h0c-0.1,0-0.2,0-0.2,0.1h0v0c-0.1,0-0.2,0-0.2,0.1c-0.1,0-0.1,0-0.2,0.1
			c-0.6,0.2-1.3,0.4-2.1,0.7c-0.1,0-0.3,0.1-0.4,0.1c-2,0.6-4.5,1.4-7.3,2.2c-0.3,0.1-0.6,0.2-0.9,0.3c-0.5,0.2-1,0.3-1.5,0.5
			c-0.1,0-0.2,0.1-0.3,0.1c-0.2,0-0.3,0.1-0.5,0.1c-0.2,0-0.3,0.1-0.5,0.1c-0.2,0-0.3,0.1-0.5,0.1c-0.2,0-0.3,0.1-0.5,0.1
			c-0.2,0-0.3,0.1-0.5,0.1c-0.2,0-0.3,0.1-0.5,0.2c-0.2,0-0.3,0.1-0.5,0.1c0,0,0,0,0,0c-0.2,0-0.3,0.1-0.5,0.1
			c-0.1,0-0.2,0.1-0.4,0.1c0,0-0.1,0-0.1,0c-0.2,0-0.3,0.1-0.5,0.1c-0.9,0.3-1.8,0.5-2.7,0.8c-0.5,0.2-1.1,0.3-1.6,0.5
			c-0.5,0.1-0.9,0.3-1.4,0.4c-0.4,0.1-0.7,0.2-1.1,0.3c-1.4,0.4-2.8,0.8-4.3,1.2c-0.3,0.1-0.6,0.2-0.9,0.2c-0.5,0.1-1,0.3-1.5,0.4
			c-0.5,0.1-0.9,0.3-1.4,0.4c-0.5,0.1-1,0.3-1.6,0.4c-17.4,4.8-38.5,10.2-58,14.2c-0.7,0.1-1.4,0.3-2.1,0.4c-0.3,0.1-0.7,0.1-1,0.2
			c-0.7,0.1-1.4,0.3-2,0.4c-2,0.4-4,0.8-6,1.1c-0.7,0.1-1.3,0.2-2,0.3c-0.3,0.1-0.7,0.1-1,0.2c-0.6,0.1-1.3,0.2-1.9,0.3
			c-0.6,0.1-1.3,0.2-1.9,0.3c-0.6,0.1-1.3,0.2-1.9,0.3c-0.6,0.1-1.3,0.2-1.9,0.3c-0.6,0.1-1.2,0.2-1.8,0.3c-0.6,0.1-1.2,0.2-1.8,0.2
			c-0.3,0-0.6,0.1-0.9,0.1c-1.2,0.1-2.4,0.3-3.5,0.4c-0.3,0-0.6,0.1-0.9,0.1c-0.6,0.1-1.1,0.1-1.7,0.2c-1.1,0.1-2.2,0.2-3.3,0.3
			c-0.8,0.1-1.6,0.1-2.4,0.1c-0.5,0-1,0-1.5,0.1c-0.7,0-1.5,0-2.2,0.1c-1,0-1.9,0-2.8,0c-0.5,0-0.9,0-1.3,0c-0.2,0-0.4,0-0.6,0
			c-0.4,0-0.8,0-1.3-0.1c-0.1,0-0.3,0-0.5,0c0,0-0.1,0-0.1,0c-0.1,0-0.2,0-0.3,0c-0.4,0-0.8-0.1-1.2-0.1c-0.1,0-0.2,0-0.4,0
			c-0.1,0-0.3,0-0.4,0c-0.2,0-0.5,0-0.7,0c-0.1,0-0.3,0-0.4,0c-0.1,0-0.3,0-0.4,0c-0.3,0-0.5,0-0.8-0.1c-0.3,0-0.5,0-0.8-0.1
			c-0.1,0-0.3,0-0.4,0c-0.4,0-0.7-0.1-1.1-0.1c-0.2,0-0.4,0-0.5,0c-0.4,0-0.7-0.1-1.1-0.1c-0.2,0-0.3,0-0.5,0c-0.5,0-1-0.1-1.5-0.1
			c-1.4-0.1-2.9-0.2-4.4-0.3c-0.2,0-0.4,0-0.6,0c-0.4,0-0.8-0.1-1.2-0.1c-0.6,0-1.2-0.1-1.8-0.1c-0.3,0-0.5,0-0.8-0.1
			c-0.6,0-1.2-0.1-1.8-0.1c-0.2,0-0.4,0-0.7,0c-0.4,0-0.8-0.1-1.3-0.1l-1.4-0.1c-0.2,0-0.5,0-0.7-0.1c-0.2,0-0.5,0-0.7-0.1
			c-0.4,0-0.7-0.1-1.1-0.1c-2.1-0.2-4.4-0.3-6.7-0.5c-0.3,0-0.7-0.1-1-0.1c-0.5,0-1-0.1-1.6-0.1c-1.2-0.1-2.4-0.2-3.7-0.3
			c-0.1,0-0.2,0-0.3,0c-1.1-0.1-2.2-0.2-3.3-0.3c-0.1,0-0.1,0-0.2,0c-6.6-0.5-13.8-1.1-21.4-1.7c-0.4,0-0.8-0.1-1.1-0.1
			c-1.5-0.1-3.1-0.2-4.6-0.4c-1-0.1-2-0.2-2.9-0.2c-0.1,0-0.1,0-0.2,0c-1.1-0.1-2.3-0.2-3.4-0.3c-0.1,0-0.3,0-0.4,0
			c-2-0.2-4-0.3-6.1-0.5c-0.5,0-1.1-0.1-1.6-0.1c-0.2,0-0.3,0-0.5,0c-1.8-0.1-3.6-0.3-5.4-0.4c-0.8-0.1-1.6-0.1-2.4-0.2
			c-0.5,0-1.1-0.1-1.6-0.1c-1.1-0.1-2.2-0.2-3.2-0.3c-1.6-0.1-3.2-0.3-4.9-0.4c-0.1,0-0.3,0-0.4,0c-0.7-0.1-1.3-0.1-2-0.2
			c0,0-0.1,0-0.1,0c-2-0.2-4-0.3-6-0.5c-0.1,0-0.1,0-0.2,0c-0.2,0-0.4,0-0.6,0c45.5-25.4,58.5-68.9,58.5-68.9h0
			c23.1,2,45.3,3.9,64.9,5.7c0,0,0,0,0,0c1,0.1,2.1,0.2,3.1,0.3c11.5,1.1,22.2,2,31.5,2.9c4.5,0.4,8.7,0.9,12.5,1.3
			c14,1.4,23.8,2.6,27.6,3.3c9.9,1.9,21,3.7,31.1,5.2c0.8,0.1,1.7,0.2,2.5,0.4c0,0,0.1,0,0.1,0c1.3,0.2,2.5,0.4,3.7,0.5
			c0,0,0.1,0,0.1,0c1.4,0.2,2.8,0.4,4.1,0.6c2,0.3,3.8,0.5,5.6,0.8c0.8,0.1,1.5,0.2,2.2,0.3c8.7,1.2,14.5,1.8,14.5,1.8
			s0,0.2,0.1,0.4c0,0,0,0,0,0.1c0,0.1,0,0.2,0,0.3c0,0.2,0.1,0.4,0.1,0.7c0.1,0.3,0.1,0.7,0.2,1.1c0,0,0,0,0,0c0,0.1,0,0.2,0,0.3
			c0,0.4,0.1,0.7,0.1,1.1c0,0.3,0.1,0.6,0.1,0.9c0,0.2,0,0.3,0,0.5c0,0.2,0,0.4,0,0.6c0,0.3,0,0.5,0.1,0.8c0,0.1,0,0.2,0,0.3
			c0,0.2,0,0.4,0,0.6c0,0.1,0,0.2,0,0.3c0,0.2,0,0.4,0,0.6C949,417.8,949,417.9,949,418z"/>
		<path class="st29" d="M941.6,433.2c-2.8,1-11.3,3.6-23,7c-3.9-16.3-16.4-23.1-16.4-23.1l46.4-5.2
			C949.3,417.7,950,430.3,941.6,433.2z"/>
		<g>
			<path class="st26" d="M693.7,411.7L693.7,411.7c-1.5-0.1-2.6-1.6-2.5-3.3l0.3-3.3c0.2-1.7,1.5-3,3-2.8l0,0
				c1.5,0.1,2.6,1.6,2.5,3.3l-0.3,3.3C696.6,410.5,695.2,411.8,693.7,411.7z"/>
			<path class="st26" d="M679.5,410.5L679.5,410.5c-1.5-0.1-2.6-1.6-2.5-3.3l0.3-3.3c0.2-1.7,1.5-3,3-2.8l0,0
				c1.5,0.1,2.6,1.6,2.5,3.3l-0.3,3.3C682.4,409.3,681,410.6,679.5,410.5z"/>
			<path class="st26" d="M665.3,409.2L665.3,409.2c-1.5-0.1-2.6-1.6-2.5-3.3l0.3-3.3c0.2-1.7,1.5-3,3-2.8l0,0
				c1.5,0.1,2.6,1.6,2.5,3.3l-0.3,3.3C668.2,408.1,666.8,409.4,665.3,409.2z"/>
			<path class="st26" d="M651.1,408L651.1,408c-1.5-0.1-2.6-1.6-2.5-3.3l0.3-3.3c0.2-1.7,1.5-3,3-2.8l0,0c1.5,0.1,2.6,1.6,2.5,3.3
				l-0.3,3.3C654,406.9,652.6,408.1,651.1,408z"/>
			<path class="st26" d="M636.9,406.8L636.9,406.8c-1.5-0.1-2.6-1.6-2.5-3.3l0.3-3.3c0.2-1.7,1.5-3,3-2.8l0,0
				c1.5,0.1,2.6,1.6,2.5,3.3l-0.3,3.3C639.8,405.6,638.4,406.9,636.9,406.8z"/>
			<path class="st26" d="M622.7,405.6L622.7,405.6c-1.5-0.1-2.6-1.6-2.5-3.3l0.3-3.3c0.2-1.7,1.5-3,3-2.8l0,0
				c1.5,0.1,2.6,1.6,2.5,3.3l-0.3,3.3C625.6,404.4,624.2,405.7,622.7,405.6z"/>
			<path class="st26" d="M608.5,404.3L608.5,404.3c-1.5-0.1-2.6-1.6-2.5-3.3l0.3-3.3c0.2-1.7,1.5-3,3-2.8l0,0
				c1.5,0.1,2.6,1.6,2.5,3.3l-0.3,3.3C611.4,403.2,610,404.5,608.5,404.3z"/>
			<path class="st26" d="M594.3,403.1L594.3,403.1c-1.5-0.1-2.6-1.6-2.5-3.3l0.3-3.3c0.2-1.7,1.5-3,3-2.8l0,0
				c1.5,0.1,2.6,1.6,2.5,3.3l-0.3,3.3C597.2,401.9,595.8,403.2,594.3,403.1z"/>
			<path class="st26" d="M580.1,401.9L580.1,401.9c-1.5-0.1-2.6-1.6-2.5-3.3l0.3-3.3c0.2-1.7,1.5-3,3-2.8l0,0
				c1.5,0.1,2.6,1.6,2.5,3.3l-0.3,3.3C583,400.7,581.6,402,580.1,401.9z"/>
			<path class="st26" d="M566.2,400.7L566.2,400.7c-1.5-0.1-2.6-1.6-2.5-3.3l0.3-3.3c0.2-1.7,1.5-3,3-2.8l0,0
				c1.5,0.1,2.6,1.6,2.5,3.3l-0.3,3.3C569,399.5,567.7,400.8,566.2,400.7z"/>
			<path class="st26" d="M552,399.4L552,399.4c-1.5-0.1-2.6-1.6-2.5-3.3l0.3-3.3c0.2-1.7,1.5-3,3-2.8l0,0c1.5,0.1,2.6,1.6,2.5,3.3
				l-0.3,3.3C554.8,398.3,553.5,399.6,552,399.4z"/>
			<path class="st26" d="M537.8,398.2L537.8,398.2c-1.5-0.1-2.6-1.6-2.5-3.3l0.3-3.3c0.2-1.7,1.5-3,3-2.8l0,0
				c1.5,0.1,2.6,1.6,2.5,3.3l-0.3,3.3C540.6,397.1,539.3,398.4,537.8,398.2z"/>
			<path class="st26" d="M520.2,396.5L520.2,396.5c-1.5-0.1-2.6-1.6-2.5-3.3l0.3-3.3c0.2-1.7,1.5-3,3-2.8l0,0
				c1.5,0.1,2.6,1.6,2.5,3.3l-0.3,3.3C523,395.4,521.7,396.7,520.2,396.5z"/>
		</g>
		<g>
			<path class="st26" d="M848.6,426.7L848.6,426.7c-1.5-0.1-2.6-1.6-2.5-3.3l0.3-3.3c0.2-1.7,1.5-3,3-2.8l0,0
				c1.5,0.1,2.6,1.6,2.5,3.3l-0.3,3.3C851.5,425.6,850.1,426.9,848.6,426.7z"/>
			<path class="st26" d="M834.4,425.5L834.4,425.5c-1.5-0.1-2.6-1.6-2.5-3.3l0.3-3.3c0.2-1.7,1.5-3,3-2.8l0,0
				c1.5,0.1,2.6,1.6,2.5,3.3l-0.3,3.3C837.3,424.3,835.9,425.6,834.4,425.5z"/>
			<path class="st26" d="M820.2,424.3L820.2,424.3c-1.5-0.1-2.6-1.6-2.5-3.3l0.3-3.3c0.2-1.7,1.5-3,3-2.8l0,0
				c1.5,0.1,2.6,1.6,2.5,3.3l-0.3,3.3C823.1,423.1,821.7,424.4,820.2,424.3z"/>
		</g>
		<path class="st26" d="M467,378.2l-9.7,9.1l-5.8,0.4c0.5-0.3,0.9-0.6,1.3-1c0.1-0.1,0.1-0.1,0.2-0.2c1.1-1,2.8-2.6,5.3-4.5
			c1.7-1.3,3.7-2.6,6.1-4c0,0,0,0,0,0L467,378.2z"/>
		<polygon class="st26" points="469.1,378.6 459.7,387.8 470.4,390.1 473.8,379.5 		"/>
		<polygon class="st26" points="474.8,379.9 472.3,389.8 480.3,387.5 480.8,380.6 		"/>
		<path class="st26" d="M668.5,455.6c4.2-1.6,5.3-8.9,1.8-12c-3.4-3.1-8.2-6.2-13.5-6.6c-10.9-0.8-6.5,21.4-2.9,21.9
			C656.1,459.2,662.9,457.8,668.5,455.6z"/>
		<path class="st30" d="M901.3,412.7c0.4-0.6,41.1-14,67.6-8.2l-25.6,16.1l-41.1-3.5C902.2,417.1,899.1,415.7,901.3,412.7z"/>
		<path class="st25" d="M881.6,318.9c0,0-27.2,60.1-32.4,69.2c-5.2,9.1-16.5,15-16.5,15l-0.1,0l-72.1,29.3c0,0-89.9-7.1-109.5-9.3
			c0,0,0,0,0,0c-1.8-0.2-3-0.4-3.5-0.5c-5.9-1.3-8.7-4-7.6-6.2c1.1-2.2,139.4-18.7,154.7-20.5c0.1,0,0.3,0,0.4,0
			c14.9-1.8,16.3-6.8,16.3-6.8l57-65.4c0.7-1.2,1.9-2.1,3.3-2.8C875.9,319,881.6,318.9,881.6,318.9z"/>
		<path class="st17" d="M871.8,321c-15.3,18.6-57.8,70-61.8,73.5c-4.3,3.8-128.4,23.7-158.9,28.7c0,0,0,0,0,0
			c-1.8-0.2-3-0.4-3.5-0.5c-5.9-1.3-8.7-4-7.6-6.2c1.1-2.2,139.4-18.7,154.7-20.5c15.3-1.7,16.7-6.9,16.7-6.9l57-65.4
			C869.2,322.6,870.4,321.7,871.8,321z"/>
		<path class="st25" d="M881.6,318.9c0,0-27.2,60.1-32.4,69.2c-5.2,9.1-16.5,15-16.5,15l-0.1,0c-15.7-0.4-28.9-4-37.5-7.1
			c14.9-1.8,16.3-6.8,16.3-6.8l57-65.4c0.7-1.2,1.9-2.1,3.3-2.8C875.9,319,881.6,318.9,881.6,318.9z"/>
		<path class="st31" d="M659.3,431.8l-2.7,30.3c0,0-11.6,4.2-29.7,3.2c-11.1-0.6-18.5-3-22.5-4.8c-2.6-1.1-3.8-2-3.8-2l2.9-31.8
			c1-0.9,2.4-1.5,4.2-1.9c14.3-3.7,49.5,5.8,49.5,5.8L659.3,431.8z"/>
		<path class="st32" d="M607.5,424.7l-3.2,35.8c-2.6-1.1-3.8-2-3.8-2l2.9-31.8C604.4,425.8,605.8,425.2,607.5,424.7z"/>
	</g>
	<g>
		<path class="st23" d="M429.5,977.4l213-56.8c4.5-1.2,7.5-4.8,6.7-8L529.7,463.7c-0.8-3.2-5.2-4.8-9.7-3.6l-213,56.8
			c-4.5,1.2-7.5,4.8-6.7,8l119.4,448.9C420.6,977,425,978.6,429.5,977.4z"/>
		<path class="st33" d="M429.5,977.4l17.5-4.7L324.5,512.2l-17.5,4.7c-4.5,1.2-7.5,4.8-6.7,8l119.4,448.9
			C420.6,977,425,978.6,429.5,977.4z"/>
		
			<rect x="390.5" y="585.2" transform="matrix(0.2571 0.9664 -0.9664 0.2571 921.1494 0.4851)" class="st34" width="139.5" height="28.3"/>
		
			<rect x="429.2" y="597.5" transform="matrix(0.2571 0.9664 -0.9664 0.2571 983.7545 -56.2575)" class="st34" width="198.5" height="28.3"/>
		
			<rect x="442.4" y="566.9" transform="matrix(0.2571 0.9664 -0.9664 0.2571 916.4583 -51.9983)" class="st33" width="99.2" height="6.3"/>
		
			<rect x="382.2" y="583" transform="matrix(0.2571 0.9664 -0.9664 0.2571 887.2524 18.1393)" class="st33" width="99.2" height="6.3"/>
		<path class="st33" d="M373.8,547.8l0.6,1.6c0,0.1,0,0.1,0.1,0.2l7.6,10.9c0.1,0.1,0.1,0.3,0.1,0.5l-0.6,19.3
			c-0.1,0.5-2.3-1.7-2.7-2c-4.6-3.2-16.9-14-22-17.9c-0.8-0.6-2,0-1.9,1.1c0.1,0.5,0.3,1,0.6,1.3l17.7,21.6l-0.9,4.1
			c-0.1,0.6,0.2,1.2,0.8,1.3l3.2,0.7c0.6,0.1,1.2-0.2,1.3-0.8l2.3,2.8c0.1,0.1,0.2,0.3,0.2,0.5l-1.1,17.5c-0.1,1.6,0.3,3.1,1.2,4.4
			c0.4,0.5,0.8,1.1,1.1,1.6c0.8,1.1,2.3,1.3,3.3,0.5l0.5-0.4c1.7-1.3,2.7-3.3,2.7-5.5l0.3-14c0-0.3,0.2-0.5,0.4-0.6l5.3-2l-0.2,0.9
			c-0.1,0.6,0.2,1.2,0.8,1.3l3.2,0.7c0.6,0.1,1.2-0.2,1.3-0.8l1-4.4l8.3-3.1c0.7-0.3,1.2-0.7,1.7-1.3c0.5-0.7,1.1-1.5,1-1.7
			c-0.5-0.5-15.3-1.6-21-1.7c-0.3,0-0.3-2.8-0.3-3.1l-0.8-18.7c0-0.2,0.1-0.5,0.4-0.6l4.7-2.5c0.5-0.3,0.9-0.7,1.2-1.3l0,0
			c0.2-0.4-0.1-0.8-0.5-0.9l-7.4-1.8c-0.2-0.1-0.4-0.2-0.5-0.4l-0.7-1.8c-0.2-0.6-1-0.6-1.2,0l-0.3,0.6l-9.7-6.9
			C374.3,546.7,373.6,547.2,373.8,547.8z"/>
	</g>
	<g>
		<path class="st17" d="M569.4,1030.1H302.5V642.6h267.7c17.7,0,32.1,14.4,32.1,32.1v322.5C602.3,1015.3,587.5,1030.1,569.4,1030.1z
			"/>
		<g>
			<path class="st35" d="M346.5,691.6v12.1h-5.7V671h12.5c1.9,0,3.6,0.3,5.1,0.8c1.5,0.5,2.7,1.2,3.7,2.2c1,0.9,1.8,2,2.3,3.3
				c0.5,1.3,0.8,2.7,0.8,4.2c0,1.6-0.3,3-0.8,4.3c-0.5,1.3-1.3,2.3-2.3,3.2c-1,0.9-2.3,1.5-3.7,2c-1.5,0.5-3.2,0.7-5.1,0.7H346.5z
				 M346.5,687h6.8c1.1,0,2-0.1,2.8-0.4c0.8-0.3,1.4-0.7,1.9-1.1c0.5-0.5,0.9-1.1,1.1-1.8c0.2-0.7,0.3-1.4,0.3-2.2
				c0-0.8-0.1-1.5-0.3-2.2c-0.2-0.7-0.6-1.3-1.1-1.9c-0.5-0.5-1.2-1-1.9-1.3c-0.8-0.3-1.7-0.5-2.8-0.5h-6.8V687z"/>
			<path class="st35" d="M384.4,696.1h-12.7l-2.6,7.6h-5.9l12.3-32.7h5.1l12.4,32.7h-5.9L384.4,696.1z M373.4,691.5h9.5l-4.7-13.6
				L373.4,691.5z"/>
			<path class="st35" d="M413.8,695.3c0-0.7-0.1-1.2-0.3-1.8c-0.2-0.5-0.5-1-1.1-1.4c-0.5-0.4-1.2-0.8-2.1-1.2
				c-0.9-0.4-2.1-0.8-3.5-1.2c-1.6-0.5-3-1-4.3-1.6c-1.3-0.6-2.4-1.3-3.4-2.1c-1-0.8-1.7-1.7-2.2-2.7c-0.5-1-0.8-2.2-0.8-3.5
				c0-1.3,0.3-2.5,0.8-3.6c0.6-1.1,1.3-2.1,2.4-2.9c1-0.8,2.2-1.4,3.7-1.9c1.4-0.4,3-0.7,4.7-0.7c1.8,0,3.5,0.3,5,0.8
				c1.5,0.5,2.7,1.3,3.7,2.2c1,0.9,1.8,2,2.3,3.2c0.5,1.2,0.8,2.5,0.8,3.8h-5.7c0-0.8-0.1-1.5-0.4-2.2c-0.2-0.7-0.6-1.2-1.1-1.7
				c-0.5-0.5-1.2-0.9-1.9-1.1c-0.8-0.3-1.7-0.4-2.8-0.4c-1,0-1.9,0.1-2.6,0.3c-0.7,0.2-1.3,0.5-1.8,0.9c-0.5,0.4-0.8,0.9-1.1,1.4
				c-0.2,0.6-0.3,1.2-0.3,1.8c0,1.2,0.6,2.2,1.7,3c1.1,0.8,2.9,1.6,5.2,2.2c1.8,0.5,3.4,1.1,4.8,1.8c1.3,0.7,2.5,1.4,3.4,2.2
				c0.9,0.8,1.6,1.8,2,2.8c0.4,1,0.7,2.2,0.7,3.5c0,1.4-0.3,2.6-0.8,3.7c-0.5,1.1-1.3,2-2.3,2.8c-1,0.8-2.2,1.4-3.7,1.8
				c-1.4,0.4-3,0.6-4.8,0.6c-1.6,0-3.1-0.2-4.6-0.6c-1.5-0.4-2.9-1.1-4.1-1.9s-2.2-1.9-2.9-3.2c-0.7-1.3-1.1-2.8-1.1-4.5h5.7
				c0,1,0.2,1.9,0.5,2.7c0.4,0.7,0.9,1.3,1.5,1.8c0.6,0.5,1.4,0.8,2.3,1c0.9,0.2,1.8,0.3,2.8,0.3c2,0,3.5-0.4,4.5-1.2
				C413.3,697.7,413.8,696.6,413.8,695.3z"/>
			<path class="st35" d="M441.5,695.3c0-0.7-0.1-1.2-0.3-1.8c-0.2-0.5-0.5-1-1.1-1.4c-0.5-0.4-1.2-0.8-2.1-1.2
				c-0.9-0.4-2.1-0.8-3.5-1.2c-1.6-0.5-3-1-4.3-1.6c-1.3-0.6-2.4-1.3-3.4-2.1c-1-0.8-1.7-1.7-2.2-2.7c-0.5-1-0.8-2.2-0.8-3.5
				c0-1.3,0.3-2.5,0.8-3.6c0.6-1.1,1.3-2.1,2.4-2.9c1-0.8,2.2-1.4,3.7-1.9c1.4-0.4,3-0.7,4.7-0.7c1.8,0,3.5,0.3,5,0.8
				c1.5,0.5,2.7,1.3,3.7,2.2c1,0.9,1.8,2,2.3,3.2c0.5,1.2,0.8,2.5,0.8,3.8h-5.7c0-0.8-0.1-1.5-0.4-2.2c-0.2-0.7-0.6-1.2-1.1-1.7
				c-0.5-0.5-1.2-0.9-1.9-1.1c-0.8-0.3-1.7-0.4-2.8-0.4c-1,0-1.9,0.1-2.6,0.3c-0.7,0.2-1.3,0.5-1.8,0.9c-0.5,0.4-0.8,0.9-1.1,1.4
				c-0.2,0.6-0.3,1.2-0.3,1.8c0,1.2,0.6,2.2,1.7,3c1.1,0.8,2.9,1.6,5.2,2.2c1.8,0.5,3.4,1.1,4.8,1.8c1.3,0.7,2.5,1.4,3.4,2.2
				c0.9,0.8,1.6,1.8,2,2.8c0.4,1,0.7,2.2,0.7,3.5c0,1.4-0.3,2.6-0.8,3.7c-0.5,1.1-1.3,2-2.3,2.8c-1,0.8-2.2,1.4-3.7,1.8
				c-1.4,0.4-3,0.6-4.8,0.6c-1.6,0-3.1-0.2-4.6-0.6c-1.5-0.4-2.9-1.1-4.1-1.9c-1.2-0.9-2.2-1.9-2.9-3.2c-0.7-1.3-1.1-2.8-1.1-4.5
				h5.7c0,1,0.2,1.9,0.6,2.7c0.4,0.7,0.9,1.3,1.5,1.8c0.6,0.5,1.4,0.8,2.3,1c0.9,0.2,1.8,0.3,2.8,0.3c2,0,3.5-0.4,4.5-1.2
				C441,697.7,441.5,696.6,441.5,695.3z"/>
			<path class="st35" d="M457.9,691.6v12.1h-5.7V671h12.5c1.9,0,3.6,0.3,5.1,0.8c1.5,0.5,2.7,1.2,3.7,2.2c1,0.9,1.8,2,2.3,3.3
				c0.5,1.3,0.8,2.7,0.8,4.2c0,1.6-0.3,3-0.8,4.3c-0.5,1.3-1.3,2.3-2.3,3.2c-1,0.9-2.3,1.5-3.7,2c-1.5,0.5-3.2,0.7-5.1,0.7H457.9z
				 M457.9,687h6.8c1.1,0,2-0.1,2.8-0.4c0.8-0.3,1.4-0.7,1.9-1.1c0.5-0.5,0.9-1.1,1.1-1.8c0.2-0.7,0.3-1.4,0.3-2.2
				c0-0.8-0.1-1.5-0.3-2.2c-0.2-0.7-0.6-1.3-1.1-1.9c-0.5-0.5-1.2-1-1.9-1.3c-0.8-0.3-1.7-0.5-2.8-0.5h-6.8V687z"/>
			<path class="st35" d="M507.6,688.2c0,2.5-0.3,4.7-1,6.7c-0.7,2-1.6,3.6-2.7,5c-1.2,1.4-2.6,2.4-4.3,3.2c-1.7,0.7-3.5,1.1-5.5,1.1
				c-2,0-3.8-0.4-5.5-1.1s-3.1-1.8-4.3-3.2c-1.2-1.4-2.1-3-2.8-5c-0.7-2-1-4.2-1-6.7v-1.7c0-2.5,0.3-4.7,1-6.7c0.7-2,1.6-3.6,2.8-5
				c1.2-1.4,2.6-2.4,4.3-3.2c1.7-0.7,3.5-1.1,5.5-1.1c2,0,3.9,0.4,5.5,1.1c1.7,0.7,3.1,1.8,4.3,3.2c1.2,1.4,2.1,3.1,2.8,5
				c0.7,2,1,4.2,1,6.7V688.2z M502,686.5c0-1.8-0.2-3.4-0.5-4.8c-0.4-1.4-0.9-2.6-1.5-3.5c-0.7-0.9-1.5-1.7-2.5-2.1
				c-1-0.5-2.1-0.7-3.3-0.7c-1.2,0-2.3,0.2-3.3,0.7c-1,0.5-1.8,1.2-2.5,2.1c-0.7,0.9-1.2,2.1-1.6,3.5c-0.4,1.4-0.5,3-0.5,4.8v1.7
				c0,1.8,0.2,3.4,0.5,4.8c0.4,1.4,0.9,2.6,1.6,3.5c0.7,1,1.5,1.7,2.5,2.2c1,0.5,2.1,0.7,3.3,0.7c2.5,0,4.4-1,5.8-2.9
				c1.4-1.9,2-4.7,2-8.4V686.5z"/>
			<path class="st35" d="M525.3,691.1H519v12.6h-5.7V671h11.5c1.9,0,3.5,0.2,5,0.6c1.5,0.4,2.7,1.1,3.7,1.9c1,0.8,1.8,1.9,2.3,3.1
				c0.5,1.2,0.8,2.6,0.8,4.3c0,2.2-0.5,4-1.6,5.5c-1.1,1.5-2.5,2.6-4.4,3.4l7.3,13.6v0.3h-6.1L525.3,691.1z M519,686.6h5.8
				c1,0,1.9-0.1,2.7-0.4c0.8-0.3,1.4-0.6,1.9-1.1c0.5-0.5,0.9-1,1.1-1.7c0.3-0.7,0.4-1.4,0.4-2.2c0-0.8-0.1-1.6-0.4-2.3
				c-0.2-0.7-0.6-1.3-1.1-1.8c-0.5-0.5-1.1-0.9-1.9-1.1c-0.8-0.3-1.7-0.4-2.8-0.4H519V686.6z"/>
			<path class="st35" d="M564.5,675.6h-10.2v28.1h-5.6v-28.1h-10.1V671h25.9V675.6z"/>
		</g>
		<g>
			<path class="st35" d="M475.1,988.5h-45c-1.5,0-2.6-1.2-2.6-2.6l0,0c0-1.5,1.2-2.6,2.6-2.6h45c1.5,0,2.6,1.2,2.6,2.6l0,0
				C477.8,987.3,476.6,988.5,475.1,988.5z"/>
			<path class="st35" d="M507.2,1001H398c-1.5,0-2.6-1.2-2.6-2.6l0,0c0-1.5,1.2-2.6,2.6-2.6h109.2c1.5,0,2.6,1.2,2.6,2.6l0,0
				C509.9,999.8,508.7,1001,507.2,1001z"/>
		</g>
		<g>
			<path class="st35" d="M452.6,950.2c-28.5,0-55.4-11.1-75.6-31.3c-20.2-20.2-31.3-47-31.3-75.6s11.1-55.4,31.3-75.6
				c20.2-20.2,47-31.3,75.6-31.3c28.5,0,55.4,11.1,75.6,31.3c20.2,20.2,31.3,47,31.3,75.6s-11.1,55.4-31.3,75.6
				C508,939.1,481.2,950.2,452.6,950.2z M452.6,737.7c-28.2,0-54.8,11-74.7,31c-20,20-31,46.5-31,74.7s11,54.8,31,74.7
				c20,20,46.5,31,74.7,31c28.2,0,54.8-11,74.7-31c20-20,31-46.5,31-74.7s-11-54.8-31-74.7C507.4,748.7,480.8,737.7,452.6,737.7z"/>
		</g>
		<path class="st35" d="M538.3,843.4c0,5.3-0.5,10.4-1.4,15.4c-2.2,12-6.9,23.2-13.5,32.9C508,914.2,482,929,452.6,929
			c-35,0-65-20.9-78.4-51c-1.8-4-3.2-8.1-4.4-12.3c-1.9-7.1-3-14.6-3-22.4c0-6.3,0.7-12.4,1.9-18.2c0-0.1,0-0.1,0-0.2
			c3.6-16.2,11.7-30.7,23.1-42.1c3.2-3.2,6.7-6.2,10.4-8.9c1.8-1.3,3.6-2.5,5.4-3.6c13-8,28.4-12.6,44.8-12.6c2.2,0,4.3,0.1,6.5,0.2
			c3,0.2,6,0.6,8.9,1.1c12.3,2.2,23.7,7.1,33.5,13.9h0c6.1,4.3,11.7,9.3,16.5,15c2.5,3,4.9,6.2,7,9.5c1.3,2.1,2.5,4.2,3.7,6.4
			c2.7,5.3,4.9,10.8,6.5,16.7C537.2,827.8,538.3,835.5,538.3,843.4z"/>
		<g>
			<path class="st36" d="M423.5,805c-3.4,5.4,1.4,14.8-8.8,12.3c-10.3-2.6-16.5-3.7-17.1,2c-0.6,5.7,7.7,5.7,7.7,11.7
				c0,6-3.7,8-9.4,5.1c-5.7-2.8-7.3-7-14-4.4c-6.6,2.6-10.5,0.9-12-4.3c-0.3-0.9-0.6-1.6-1.1-2.2c0-0.1,0-0.1,0-0.2
				c3.6-16.2,11.7-30.7,23.1-42.1c3.2-3.2,6.7-6.2,10.4-8.9c1.8-1.3,3.6-2.5,5.4-3.6c2.7,0.1,5.9,1.1,8.6,4.5c6,7.4,10,3.7,8.5,12.3
				c-1.4,8.5,0.9,9.7,5.7,9.4c4.8-0.3,10.5-0.3,11.1,3.4C442.3,803.6,426.9,799.6,423.5,805z"/>
			<path class="st36" d="M459,856.3c0,0-7.5,2.4-9.5-2.8c-2-5.3,0.3-6.4-6.4-8c-6.7-1.6-7.3-6.1-11.5-5.6c-4.3,0.6-2.1,2.3-7.1,6
				c-5,3.7-9.5,2-9.4,8.8c0.1,6.8,7.5,7.9,9,12.4c1.5,4.5-1.1,6.4,2.1,9.8c3.2,3.4,9.2,1.9,6.4,6.6c-2.8,4.7-7.1,8.3-4.9,15.6
				c2.1,7.3,0.6,7.7,4.3,12.8c3.6,5.1,10.7,6.8,11.8,3.4c1.1-3.4-4.9-7.9-3-11.3c1.9-3.4,5.1-1.1,6.4-6.2c1.3-5.1,6.5-5.1,6.9-8.7
				c0.4-3.6-6.3-9-3.7-11.3c2.6-2.3,7.7,4.1,11.7-1.6c4-5.7,1.3-10.3,5.4-15.7C471.5,855.3,461.8,853.2,459,856.3z"/>
			<path class="st36" d="M538.3,843.4c0,5.3-0.5,10.4-1.4,15.4c-2.2,12-6.9,23.2-13.5,32.9c-2.3,0.7-4.6,0.7-6.9-0.2
				c-10.7-4.3-2.8-15.8,1.5-21.6c4.3-5.8-6.6-3.2-14.5-8.5c-7.9-5.3,0.9-19.7-7.3-17.3c-8.1,2.4-17.9,5.3-22.6-2.6
				c-4.7-7.9,4.3-9.2,0.2-15.8c-4.1-6.6,2.4-10.5,10.5-11.1c8.1-0.6,7.1-6.4,17.1-7.3c10-0.9,9.8,12,20.9,11.1
				c11.1-0.9,10.6,1.7,10.6,1.7c0.8,0,1.6,0.1,2.3,0.5C537.2,827.8,538.3,835.5,538.3,843.4z"/>
			<path class="st36" d="M528.7,803.9c-9.2,4.5-12.9-7.7-20.8-4.1c-8,3.7-6.6-3.4-12.8-8c-6.3-4.6-18.8,3.7-18.2-3.4
				c0.6-7.1,10-5.1,12-10.8c2-5.7,11.1-4.3,11.1-4.3c0.5-0.2,1.1-0.3,1.7-0.4c0,0,0,0,0,0c6.1,4.3,11.7,9.3,16.5,15
				c2.5,3,4.9,6.2,7,9.5C526.3,799.6,527.6,801.8,528.7,803.9z"/>
			<path class="st36" d="M450.9,779.4c0,0,4.8-7-2.8-9c-7.7-2.1-7.5,0.6-13.5,0c-6-0.6-8.3,4-3.8,9c4.5,5.1,8.1,14.8,12.2,9.6
				C446.9,783.8,446.1,779.9,450.9,779.4z"/>
		</g>
	</g>
</g>
</svg>
